<?xml version="1.0" encoding="utf-8"?>
<!-- Generator: Adobe Illustrator 16.0.0, SVG Export Plug-In . SVG Version: 6.00 Build 0)  -->
<!DOCTYPE svg PUBLIC "-//W3C//DTD SVG 1.1//EN" "http://www.w3.org/Graphics/SVG/1.1/DTD/svg11.dtd">
<svg version="1.1" id="Слой_1" xmlns="http://www.w3.org/2000/svg" xmlns:xlink="http://www.w3.org/1999/xlink" x="0px" y="0px"
	 width="200px" height="30px" viewBox="-15 -4 200 30" enable-background="new -15 -4 200 30" xml:space="preserve">
<g>
	<path fill="#00ADEF" d="M164.85,18.93V2.67h14.65c1.34,0,2.32,0.25,2.91,0.74c0.6,0.49,0.91,1.31,0.91,2.42v3.82
		c0,1.11-0.31,1.89-0.91,2.39c-0.6,0.48-1.57,0.73-2.91,0.73h-2.24l7.74,6.17h-5.69l-6.82-6.17h-3.74v6.17h-3.9L164.85,18.93
		L164.85,18.93z M177.81,5.47h-9.06v4.51h9.06c0.68,0,1.16-0.11,1.41-0.31c0.25-0.2,0.39-0.54,0.39-1.01V6.79
		c0-0.47-0.13-0.81-0.39-1.01C178.96,5.58,178.5,5.47,177.81,5.47L177.81,5.47z M147.59,2.67v13.22h11.33V2.67h4v12.41
		c0,1.48-0.29,2.49-0.89,3.04c-0.6,0.54-1.73,0.82-3.39,0.82h-10.76c-1.66,0-2.77-0.27-3.35-0.81c-0.59-0.54-0.87-1.55-0.87-3.05
		V2.67H147.59L147.59,2.67z M103.15,5.58v13.35h-3.96V5.58h-7.86V2.67h19.69v2.91H103.15L103.15,5.58z M70.06,18.93V2.67h2.73
		l13.8,10.8V2.67h3.59v16.27h-2.74L73.67,7.98v10.97h-3.61V18.93z M53.08,12.4h7.46l-3.79-6.78L53.08,12.4L53.08,12.4z M45.39,18.93
		l9.66-16.27h3.81l9.8,16.27h-4.45l-2.05-3.58H51.4l-2.05,3.58H45.39L45.39,18.93z M40.49,18.93h2.73l9.44-16.27h-4.12l-6.49,11.8
		L35.14,2.67h-4.48L40.49,18.93L40.49,18.93z M12.18,18.93V2.67h10.95c3.14,0,5.55,0.69,7.24,2.09c1.68,1.39,2.53,3.39,2.53,5.98
		c0,2.73-0.89,4.78-2.67,6.14c-1.79,1.37-4.48,2.05-8.09,2.05H12.18L12.18,18.93z M16.18,15.88h5.11c2.79,0,4.74-0.4,5.86-1.22
		c1.12-0.81,1.67-2.19,1.67-4.12c0-1.67-0.46-2.93-1.39-3.74c-0.92-0.82-2.34-1.24-4.26-1.24h-6.99V15.88L16.18,15.88z M-15,18.93
		L-3.77-0.92h4.45l11.39,19.86H6.88l-2.39-4.33H-8.08l-2.31,4.33H-15V18.93z M-6.12,11.01h8.69l-4.28-8.08L-6.12,11.01z"/>
	<g>
		<path fill="#00ADEF" d="M127.14-4c-8.32,0-15.09,6.67-15.09,14.88c0,8.2,6.77,14.88,15.09,14.88s15.09-6.67,15.09-14.88
			C142.22,2.68,135.46-4,127.14-4z M130.75-2.72l-2.86-0.44l-0.45,0.28l-0.17,0.28l-1.01-0.12h-1.62h-1.17
			c1.18-0.31,2.4-0.47,3.67-0.47C128.39-3.18,129.6-3.01,130.75-2.72z M127.14,24.94c-3.82,0-7.31-1.49-9.87-3.93l-0.46-0.96
			l0.22-0.45l0.9,0.12h0.73l0.96-0.83v-0.22l-1.62-0.73l-0.56-1.01l-0.39-1.01l-0.06-1.46v-2.35l0.28-0.22l0.39-0.83l-1.01-0.73
			l-0.45-1.51l-0.45-0.16l-0.16,0.28l-0.28-1.4l0.11-0.67l0.39-0.67l-0.17-0.89l-0.28-0.67l-0.11-0.39l-0.11-0.34l-0.6,0.42
			c1.67-3.09,4.48-5.51,7.87-6.69l1.13,0.51l-0.22,0.12l0.39,0.45l0.56-0.45l1.4,0.33l1.06,0.17l0.9-0.34l0.06-0.34h0.9l0.61-0.51
			l0.39,0.11l1.46-0.17l-0.15-0.21c6.07,1.62,10.54,7.08,10.54,13.57C141.41,18.63,135.01,24.94,127.14,24.94z"/>
		<polygon fill="#00ADEF" points="127.89,21.92 128.06,22.19 128.39,21.96 128.45,21.8 128.06,21.52 		"/>
		<path fill="#00ADEF" d="M133.54,20.85l-0.28,0.28l0.33,0.34v0.45v0.28h-0.51l-0.39-0.16h-0.39l0.22,0.34c0.34,0,0.16,0,0.61,0.34
			l0.45,0.12h0.39l0.28-0.28v-0.39v-0.55l-0.39-0.34L133.54,20.85z"/>
		<path fill="#00ADEF" d="M138.86,10.61l-0.06-1.28l0.22-0.67l-0.28-1.51c-0.61-1.79-0.06-1.73-0.83-1.73l-0.45,0.39l-0.45-1.51
			l0.28-1.01L136.9,2.4l0.34,0.06L136.13,1l-1.06-1.24l-0.57,0.22l0.34,0.61l-0.11,0.39l-1.18,0.22l0.28,0.45V2l-0.17-0.17h-0.61
			L132.5,2l-0.34-0.39c-1.27-0.29-0.51-0.71-1.06,0c-0.17,0-0.45,0-0.61,0l-0.39,0.61l-0.79,0.16l-0.28-0.16l-0.45,0.16l-0.51,0.67
			l-0.28-0.28l-0.61,0.11l-1.34,0.06l-0.61-0.22l-0.06-0.28V1.72l-0.22-0.73l-1.18-0.22l-1.28,0.28l-1.28-0.17l-0.95,0.83l0.45,0.22
			l-0.55,0.17l-0.73,0.45l-0.22-0.17h-0.45V2.05l1.63-1.4l-1.01,0.39l-0.89,0.83l-0.79,0.45l-1.06,0.89l-0.22,0.61l0.22,0.45v1.18
			l0.83-0.34v0.61v0.56l-0.22,0.39l-0.56,0.61v0.39l0.67,0.22l0.12,1.18l0.56,0.73l0.51,0.11l0.17,0.45l-0.95,0.67l-0.34,0.89
			l0.12,2.8l0.11,0.51l0.22,1.06v1.12l1.12,0.39l0.89-0.12l1.18,0.22l0.56-0.22l0.89-0.61l-0.16-0.51l-0.11-0.06l-0.39-0.39
			l0.06-0.5l-0.45,0.28l-0.84-0.28l0.17-0.39l-0.28-0.45l-0.22-0.79l0.06-0.45l0.51,0.16l0.06,0.51l0.61,1.12l0.61,0.06l0.22,0.45
			l0.28,0.17l1.18,0.67l0.83,0.06l0.06,0.22l0.61,0.51l0.06,0.55l0.39,0.34l0.45-0.16v1.34l0.39,0.9l0.22,0.89l0.28,0.28l0.23,0.12
			l0.73-0.51v-0.28l0.34-0.39l-0.06-0.45l2.18-1.12l0.17-0.34l0.61-0.28l0.17-0.06l0.39-0.22l0.06,0.34l0.61,0.67l-0.06,0.34
			l0.12,0.45l0.61-0.45l0.67,1.23l0.22-0.67l0.61,0.39l0.56-0.12l0.9-0.89v-0.56l-0.34-0.17l-0.39-0.28l0.34-0.67l1-0.67l0.95-0.79
			l0.56-0.89l0.16-0.56l0.17-1.12l-0.73-0.84l-0.28-1.34l0.34-0.61l0.45-0.17l0.45,0.67l0.22,0.61l0.34-0.95L138.86,10.61z
			 M120.68,9.29h-0.35l-0.59-0.35l-0.35-0.76l-0.65-0.29l-0.29-0.12V7.22l0.47-0.35l0.53-0.18l0.36-0.12l0.23,0.41l-0.35,0.24
			l0.23,0.35h0.24l0.29,0.41l0.24,0.53l0.06,0.59L120.68,9.29z M123.34,9.36h-0.41v0.35l0.26,0.52l-0.14,0.55l-0.18,0.53l0.06,0.35
			l-0.18,0.53h-0.41l-0.59-0.53v-0.53l0.35-0.53v-0.29l-0.24-0.29l0.36-0.88l0.29-0.35h0.59l0.51,0.08l0.05,0.45L123.34,9.36z
			 M125.54,9.87v0.42l-0.21,0.25l-0.39,0.13l-0.02-0.14c-0.08-0.04-0.13-0.09-0.21-0.09l0.05-0.32l0.23-0.29l0.42-0.18
			c0.08,0.02,0.21,0.08,0.31,0.09L125.54,9.87z"/>
	</g>
</g>
</svg>
