<?xml version="1.0" encoding="utf-8"?>
<!-- Generator: Adobe Illustrator 16.0.0, SVG Export Plug-In . SVG Version: 6.00 Build 0)  -->
<!DOCTYPE svg PUBLIC "-//W3C//DTD SVG 1.1//EN" "http://www.w3.org/Graphics/SVG/1.1/DTD/svg11.dtd">
<svg version="1.1" id="Слой_1" xmlns="http://www.w3.org/2000/svg" xmlns:xlink="http://www.w3.org/1999/xlink" x="0px" y="0px"
	 width="104.01px" height="70px" viewBox="0 0 104.01 70" enable-background="new 0 0 104.01 70" xml:space="preserve">
<g>
	<g>
		<path fill-rule="evenodd" clip-rule="evenodd" fill="#2E3191" d="M51.24,20.81c5.46,0.13,11.2,0.56,15.15,3.36
			c1.28-0.32,2.56-1.27,1.75-2.93C64.96,19,59.8,19.09,51.24,20.81z"/>
		<path fill-rule="evenodd" clip-rule="evenodd" fill="#2E3191" d="M50.09,15.82c4.97,0.12,10.18,0.51,13.78,3.05
			c1.17-0.29,2.33-1.15,1.59-2.67C62.57,14.19,57.87,14.27,50.09,15.82z"/>
		<path fill-rule="evenodd" clip-rule="evenodd" fill="#2E3191" d="M49.19,10.6c4.47,0.1,9.17,0.46,12.4,2.75
			c1.05-0.26,2.1-1.04,1.43-2.4C60.42,9.13,56.2,9.2,49.19,10.6z"/>
		<path fill-rule="evenodd" clip-rule="evenodd" fill="#2E3191" d="M66.98,24.05c1.89-0.64,1.49-2.52,1.3-3.29
			c-1.85-7.48-7.9-16.32-16.06-20.55l0-0.21c-0.06,0.04-0.12,0.08-0.19,0.12c-0.06-0.03-0.12-0.06-0.18-0.1l0,0.21
			c-8.87,5.65-14.61,13.73-16.27,21.74c2-4.61,9.78-15.48,16.5-18.21c8.88,4.93,10.12,10.93,12.45,19.09L66.98,24.05z"/>
	</g>
	<g>
		<path fill-rule="evenodd" clip-rule="evenodd" fill="#EC1C24" d="M78.27,59.94h0.86v2.12h-5.27v-2.12h0.91v-10.5l-0.07-2.14h6.41
			c1.6,0,2.39,0.63,2.39,1.9v3.76c0,1-0.5,1.57-1.5,1.72c1,0.15,1.5,0.72,1.5,1.72v3.51c0,0.21,0.09,0.31,0.28,0.31
			c0.2,0,0.3-0.1,0.3-0.31l1.06-1.83v2.15c0,1.23-0.54,1.85-1.63,1.85h-1.86c-1.11,0-1.66-0.61-1.66-1.83v-4.02
			c0-0.36-0.16-0.54-0.46-0.54h-1.28V59.94L78.27,59.94z M78.27,49.45v4.24h1.28c0.31,0,0.46-0.18,0.46-0.54v-3.1
			c0-0.41-0.16-0.61-0.46-0.61H78.27z"/>
		<path fill-rule="evenodd" clip-rule="evenodd" fill="#EC1C24" d="M11.44,47.3h7.26c1.6,0,2.39,0.63,2.39,1.9v10.96
			c0,1.27-0.8,1.9-2.39,1.9h-6.71l-0.55-2.12h0.91v-10.5h-0.91V47.3L11.44,47.3z M15.84,59.94h1.28c0.31,0,0.46-0.21,0.46-0.63
			v-9.26c0-0.41-0.15-0.61-0.46-0.61h-1.28V59.94z"/>
		<path fill-rule="evenodd" clip-rule="evenodd" fill="#EC1C24" d="M4.24,62.07H0l0.38-2.15l0.93,0.01L3.72,47.3h3.87l3.7,14.76
			H6.13v-2.14h0.8l-0.27-1.55H3.74l-0.28,1.55h0.78V62.07L4.24,62.07z M4.09,56.53h2.26l-0.78-4.69l-0.32-1.94l-0.3,1.94L4.09,56.53
			z"/>
		<path fill-rule="evenodd" clip-rule="evenodd" fill="#EC1C24" d="M29.53,52.19l-0.09,0.22h0l-0.09,0.21l-1.66,6.36
			c-0.57,2.71,0.54,1.18,1.38,2.95l1.55-6.75v-0.06v-0.01l0-0.01L31,53.57l0.01-0.06c0.09-0.47,0.16-0.92,0.21-1.36
			c0.05-0.44,0.08-0.86,0.1-1.26c0.07-2.04-0.34-3.61-1.2-4.61l0,0l0,0c-0.05-0.06-0.1-0.12-0.15-0.17h0
			c-0.05-0.06-0.11-0.11-0.15-0.15l0,0c-0.26-0.25-0.54-0.43-0.83-0.55l-0.01-0.01c-0.07-0.03-0.13-0.05-0.19-0.06
			c-0.06-0.02-0.12-0.03-0.18-0.03c-0.28-0.03-0.52,0.07-0.71,0.28l-0.01,0.02c-0.02,0.03-0.05,0.06-0.07,0.09
			c-0.02,0.03-0.04,0.07-0.06,0.1c-0.08,0.17-0.11,0.38-0.09,0.61c0.02,0.17,0.06,0.32,0.12,0.47c0.14,0.33,0.43,0.67,0.79,0.78l0,0
			c0.2,0.06,0.42,0.06,0.67-0.01l0.03-0.01h0c0.08-0.02,0.15-0.04,0.22-0.05c0.07-0.01,0.13-0.02,0.2-0.03
			c0.34-0.03,0.59,0.04,0.74,0.22c0.31,0.36,0.04,1.25-0.37,2.57v0c-0.17,0.54-0.35,1.16-0.53,1.82L29.53,52.19L29.53,52.19z"/>
		<path fill-rule="evenodd" clip-rule="evenodd" fill="#EC1C24" d="M55.37,47.38c-0.93,1.4-1.36,2.71-1.25,3.87l0,0.01l0,0
			c0.01,0.08,0.02,0.15,0.03,0.22l0,0c0.01,0.08,0.02,0.15,0.04,0.21l0,0c0.07,0.35,0.19,0.66,0.36,0.93l0.01,0.01
			c0.04,0.06,0.08,0.11,0.12,0.16c0.04,0.05,0.08,0.09,0.13,0.13c0.22,0.19,0.46,0.25,0.74,0.18l0.02-0.01
			c0.04-0.01,0.08-0.02,0.11-0.04c0.04-0.02,0.07-0.03,0.1-0.05c0.17-0.09,0.31-0.24,0.42-0.44c0.08-0.15,0.14-0.3,0.17-0.45
			c0.08-0.36,0.03-0.8-0.2-1.09l0,0c-0.13-0.16-0.31-0.29-0.55-0.38l-0.03-0.01l0,0c-0.08-0.03-0.14-0.06-0.21-0.08
			c-0.06-0.03-0.12-0.06-0.18-0.09c-0.3-0.17-0.46-0.37-0.48-0.61c-0.05-0.47,0.69-1.04,1.78-1.89v0c0.23-0.18,0.47-0.37,0.72-0.57
			H55.37z"/>
		<path fill-rule="evenodd" clip-rule="evenodd" fill="#EC1C24" d="M72.67,52.19l0.09,0.22h0l0.08,0.21l0,0.08l0.19,0.34l-0.01,6.44
			c0,1.72-1.11,2.58-3.32,2.58h-2.1c-2.18,0-3.27-0.86-3.27-2.58V49.45l-0.9-2.14h5.23v2.14h-1.01v9.34c0,0.77,0.55,1.16,1.66,1.16
			c1.11,0,1.66-0.39,1.66-1.16v-7.74l-0.01-0.14c-0.01-0.33-0.01-0.65,0.01-0.96v-0.49L71,49.49c0.12-1.36,0.49-2.45,1.1-3.21l0,0
			l0,0c0.05-0.06,0.1-0.12,0.14-0.17l0,0c0.05-0.06,0.1-0.11,0.15-0.15l0,0c0.25-0.25,0.51-0.43,0.79-0.55l0.01-0.01
			c0.06-0.03,0.12-0.05,0.18-0.06c0.06-0.02,0.12-0.03,0.17-0.03c0.27-0.03,0.5,0.07,0.67,0.28l0.01,0.02
			c0.02,0.03,0.05,0.06,0.07,0.09c0.02,0.03,0.04,0.07,0.05,0.1c0.08,0.17,0.11,0.38,0.09,0.61c-0.02,0.17-0.05,0.32-0.11,0.47
			c-0.14,0.33-0.41,0.67-0.75,0.78v0c-0.19,0.06-0.4,0.06-0.64-0.01l-0.03-0.01h0c-0.07-0.02-0.14-0.04-0.21-0.05
			c-0.06-0.01-0.13-0.02-0.19-0.03c-0.33-0.03-0.56,0.04-0.71,0.22c-0.29,0.36-0.04,1.25,0.35,2.57v0c0.16,0.54,0.34,1.16,0.5,1.82
			L72.67,52.19L72.67,52.19z"/>
		<path fill-rule="evenodd" clip-rule="evenodd" fill="#EC1C24" d="M32.98,59.92l0,0.06l0,0.1h-0.1h-0.89l-0.01,1.99h8.49
			c0.39-0.35,0.71-0.68,0.96-1c0.25-0.32,0.44-0.62,0.58-0.92l0-0.01l0,0c0.17-0.27,0.28-0.56,0.36-0.85
			c0.08-0.29,0.11-0.59,0.13-0.87c0.02-0.5-0.07-0.96-0.26-1.35l-0.03-0.06h0c-0.03-0.06-0.07-0.12-0.11-0.17
			c-0.04-0.05-0.08-0.1-0.12-0.14c-0.2-0.21-0.45-0.31-0.74-0.32c-0.15,0-0.29,0.02-0.42,0.07l0,0c-0.13,0.05-0.25,0.13-0.36,0.24
			c-0.22,0.22-0.33,0.49-0.34,0.8l0,0.01c0,0.06,0,0.13,0.01,0.19c0.01,0.06,0.02,0.12,0.04,0.17c0.09,0.29,0.3,0.53,0.64,0.73
			c0.06,0.03,0.11,0.06,0.15,0.09h0c0.05,0.03,0.09,0.06,0.14,0.09l0.04,0.03l0.01,0.04c0.08,0.26,0.12,0.5,0.01,0.71v0
			c-0.1,0.21-0.34,0.38-0.81,0.51l-0.01,0h-0.02h-3.71h-0.14v-4.39h1.11v2.07h1.4v-6.22h-1.4v2.16h-1.11v-4.24h3.47v2.64h1.83v-4.78
			h-9.7v2.14h0.91L32.98,59.92L32.98,59.92z"/>
		<path fill-rule="evenodd" clip-rule="evenodd" fill="#EC1C24" d="M86.24,59.92l0,0.06l0,0.1h-0.1l-0.48,1.99h8.07
			c0.39-0.35,0.71-0.68,0.96-1c0.25-0.32,0.44-0.62,0.58-0.92l0-0.01l0,0c0.17-0.27,0.28-0.56,0.36-0.85
			c0.08-0.29,0.11-0.59,0.13-0.87c0.02-0.5-0.07-0.96-0.26-1.35l-0.03-0.06h0c-0.03-0.06-0.07-0.12-0.11-0.17
			c-0.04-0.05-0.08-0.1-0.12-0.14c-0.2-0.21-0.45-0.31-0.74-0.32c-0.15,0-0.29,0.02-0.42,0.07l0,0c-0.13,0.05-0.25,0.13-0.36,0.24
			c-0.22,0.22-0.33,0.49-0.34,0.8l0,0.01c0,0.06,0,0.13,0.01,0.19c0.01,0.06,0.02,0.12,0.04,0.17c0.09,0.29,0.3,0.53,0.64,0.73
			c0.06,0.03,0.11,0.06,0.15,0.09h0c0.05,0.03,0.09,0.06,0.14,0.09l0.04,0.03l0.01,0.04c0.08,0.26,0.12,0.5,0.01,0.71v0
			c-0.1,0.21-0.34,0.38-0.81,0.51l-0.01,0h-0.02h-3.71h-0.14v-4.39h1.11v2.07h1.4v-6.22h-1.4v2.16h-1.11v-4.24h3.47v2.64l1.28-0.15
			l0.55-4.63h-9.7v2.14h0.91L86.24,59.92L86.24,59.92z"/>
		<polygon fill-rule="evenodd" clip-rule="evenodd" fill="#EC1C24" points="61.09,49.83 61.1,49.33 63.5,49.33 62.6,47.38 
			61.01,47.38 57.65,47.38 55.72,47.38 54.82,49.33 57.56,49.33 57.56,49.83 57.57,49.83 57.57,59.83 56.68,59.83 56.64,59.83 
			56.64,61.95 56.68,61.95 61.98,61.95 62.01,61.95 62.01,59.83 61.98,59.83 61.08,59.83 61.08,49.83 		"/>
		<path fill-rule="evenodd" clip-rule="evenodd" fill="#EC1C24" d="M99.14,59.91c1.14,0,1.71-0.33,1.71-0.98v-0.74
			c0-0.86-0.48-1.49-1.45-1.88L98.48,56c-1.91-0.7-2.86-1.86-2.86-3.49v-2.62c0-1.72,1.16-2.58,3.49-2.58
			c1.66,0,2.68,0.41,3.06,1.24V47.3h1.84v4.78h-1.83v-1.31c0-0.87-0.58-1.31-1.73-1.31c-1.12,0-1.68,0.27-1.68,0.81v0.85
			c0,0.8,0.49,1.37,1.46,1.72l1.21,0.33c1.65,0.59,2.5,1.65,2.56,3.19v3.12c0,1.72-1.16,2.58-3.49,2.58c-1.66,0-2.68-0.41-3.06-1.24
			l-2.29-3.63l-0.01-0.61C96,57.37,98.02,59.91,99.14,59.91z"/>
		<polygon fill-rule="evenodd" clip-rule="evenodd" fill="#EC1C24" points="45.6,59.94 46.54,59.94 46.54,62.07 43.19,62.07 
			43.19,59.94 44.1,59.94 44.1,49.45 43.19,49.45 43.19,47.3 46.51,47.3 51.08,55.13 51.08,49.43 50.02,49.45 50.02,47.3 
			53.52,47.3 53.52,49.45 52.58,49.45 52.58,59.94 53.52,59.94 53.52,62.07 50.33,62.07 45.6,53.62 		"/>
		<polygon fill-rule="evenodd" clip-rule="evenodd" fill="#EC1C24" points="29.05,62.07 25.18,62.07 22.08,49.45 21.33,47.3 
			26.65,47.3 26.65,49.45 25.85,49.45 27.21,57.53 27.53,59.46 30.48,49.45 		"/>
	</g>
	<g>
		<path fill-rule="evenodd" clip-rule="evenodd" fill="#EC1C24" d="M69.05,44.52h-5.24l0.65-2.6h0l0.28-1.15l0.9-3.61h-0.01
			l2.6-10.55h6.07l4.87,15.3h1.17v2.6h-8.34v-2.6h1.25l-0.42-1.88h-4.59l-0.44,1.88h1.23V44.52L69.05,44.52z M68.81,37.81h3.54
			l-1.23-5.68l-0.5-2.35l-0.47,2.35L68.81,37.81z"/>
		<path fill-rule="evenodd" clip-rule="evenodd" fill="#EC1C24" d="M29.69,44.52h-6.04v-2.6h1.45l3.78-15.3h6.07l4.87,15.3H41v2.6
			h-8.34v-2.6h1.25l-0.42-1.88h-4.59l-0.44,1.88h1.23V44.52L29.69,44.52z M29.46,37.81H33l-1.22-5.68l-0.5-2.35l-0.47,2.35
			L29.46,37.81z"/>
		<polygon fill-rule="evenodd" clip-rule="evenodd" fill="#EC1C24" points="62.37,41.95 63.69,41.95 63.04,44.52 55.46,44.52 
			55.46,41.95 56.9,41.95 56.9,29.21 55.46,29.21 55.46,26.62 63.85,26.62 63.85,29.21 62.37,29.21 		"/>
		<path fill-rule="evenodd" clip-rule="evenodd" fill="#EC1C24" d="M43.77,43.88L43.77,43.88L43.77,43.88
			c0.12,0.09,0.24,0.17,0.37,0.24c0.14,0.07,0.29,0.14,0.45,0.21c0.85,0.33,2.06,0.5,3.62,0.5h0.02v0c0.95,0,1.79-0.07,2.5-0.2
			c0.24-0.04,0.46-0.1,0.67-0.15c0.42-0.12,0.79-0.27,1.11-0.44l0,0c0.48-0.26,0.83-0.59,1.07-0.98c0.24-0.39,0.36-0.85,0.36-1.38
			l0.01-3.96v0l0-0.02l0-0.1l0-0.1h0c-0.01-0.17-0.03-0.33-0.07-0.5c-0.32-1.47-1.66-2.52-4-3.17l-2.02-0.42l-0.01,0
			c-0.74-0.2-1.32-0.45-1.75-0.77c-0.43-0.32-0.7-0.71-0.8-1.15c-0.01-0.03-0.01-0.07-0.02-0.1l0,0h0c0-0.03-0.01-0.07-0.01-0.1l0,0
			l0-0.02v0l0-0.03l0,0l0-0.03l0,0l0-0.14l0-1.08v0c0.01-0.39,0.27-0.69,0.79-0.88c0.49-0.18,1.21-0.27,2.17-0.27h0.01v0
			c0.88,0,1.58,0.12,2.08,0.35c0.53,0.24,0.85,0.61,0.96,1.09h0l0,0.01c0.04,0.17,0.05,0.29,0.05,0.38h0l-0.02,1.5h2.69l0.05-5.79
			h-2.72l-0.02,1.45l-0.01,0.6l-0.34-0.59c-0.28-0.48-0.82-0.84-1.61-1.09c-0.83-0.25-1.92-0.38-3.29-0.38
			c-3.78,0-5.69,1.05-5.73,3.16l-0.02,3.33c0,0.14,0.01,0.27,0.02,0.4h0c0.01,0.13,0.03,0.25,0.06,0.38
			c0.35,1.59,1.86,2.76,4.53,3.5v0l1.57,0.4l0.01,0l0.01,0c0.2,0.06,0.39,0.13,0.57,0.2l0,0c0.18,0.07,0.35,0.15,0.5,0.23
			c0.81,0.42,1.29,0.97,1.44,1.65l0,0l0.01,0.04l0,0l0.01,0.06l0,0l0.01,0.05v0l0.01,0.07l0,0c0.01,0.08,0.01,0.15,0,0.23
			l-0.01,0.93v0.01l0,0c0,0.09-0.01,0.17-0.03,0.25c-0.02,0.08-0.05,0.16-0.09,0.23l0,0c-0.21,0.36-0.67,0.61-1.37,0.74l-0.02,0
			l-0.03,0l-0.1,0h0c-0.28-0.01-0.54-0.02-0.8-0.04c-0.25-0.02-0.49-0.05-0.71-0.08c-1.16-0.16-1.95-0.45-2.31-0.77
			c-0.34-0.3-0.31-0.76,0.09-1.39c0.17-0.26,0.23-0.52,0.18-0.76c-0.05-0.24-0.21-0.48-0.47-0.71c-0.18-0.16-0.38-0.29-0.6-0.4
			c-0.22-0.11-0.47-0.2-0.73-0.26c-0.26-0.06-0.51-0.09-0.74-0.08c-0.23,0.01-0.44,0.05-0.64,0.13c-0.56,0.22-0.75,0.62-0.57,1.19
			c0.09,0.25,0.23,0.5,0.41,0.76l0,0c0.19,0.26,0.43,0.51,0.72,0.77c0.65,0.57,0.95,1.16,1.23,1.71c0.3,0.6,0.58,1.15,1.29,1.53
			l0.02,0.01L43.77,43.88z"/>
	</g>
	<g>
		<path fill-rule="evenodd" clip-rule="evenodd" fill="#2E3191" d="M9.76,69.28h0.4V70H7.87v-0.72h0.39V65.7H7.69v0.9H6.91v-1.63
			h4.2v1.63h-0.78v-0.9H9.76V69.28L9.76,69.28z M15.59,65.7v1.45h0.55c0.13,0,0.2-0.06,0.2-0.18v-1.06c0-0.14-0.07-0.21-0.2-0.21
			H15.59L15.59,65.7z M15.59,69.28h0.37V70H13.7v-0.72h0.39V65.7H13.7v-0.73h3.11c0.68,0,1.03,0.22,1.03,0.65v1.28
			c0,0.34-0.21,0.53-0.64,0.58c0.43,0.05,0.64,0.24,0.64,0.58v1.19c0,0.07,0.04,0.11,0.12,0.11c0.09,0,0.13-0.04,0.13-0.11v-1.15
			h0.46v1.26c0,0.42-0.23,0.63-0.7,0.63h-0.8c-0.48,0-0.71-0.21-0.71-0.62v-1.37c0-0.12-0.07-0.18-0.2-0.18h-0.55V69.28L15.59,69.28
			z M22.55,68.12h0.97l-0.33-1.6l-0.14-0.66l-0.13,0.66L22.55,68.12L22.55,68.12z M22.61,70h-1.82v-0.73h0.56l1.03-4.3h1.66
			l1.33,4.3h0.32V70h-2.28v-0.73h0.34l-0.11-0.53H22.4l-0.12,0.53h0.33V70L22.61,70z M31.03,64.97h1.82v0.73h-0.56L31.25,70h-1.66
			l-1.33-4.3h-0.32v-0.73h2.28v0.73h-0.34l0.58,2.75l0.13,0.66l0.13-0.66l0.64-2.75h-0.33V64.97L31.03,64.97z M37.69,67.83h-0.48
			v1.45h1.49v-0.94h0.78V70h-4.16v-0.72h0.39V65.7h-0.39v-0.73h4.16v1.63H38.7v-0.9h-1.49v1.45h0.48v-0.73h0.6v2.12h-0.6V67.83
			L37.69,67.83z M44.11,69.28h0.93v-0.94h0.78V70h-3.6v-0.72h0.39V65.7h-0.39v-0.73h2.35v0.73h-0.46V69.28L44.11,69.28z
			 M53.35,65.92c0-0.14-0.22-0.21-0.66-0.21c-0.44,0-0.66,0.07-0.66,0.21v3.14c0,0.14,0.22,0.21,0.66,0.21
			c0.44,0,0.66-0.07,0.66-0.21v-0.72h0.78v0.78c0,0.59-0.67,0.88-2.02,0.88c-1.05,0-1.58-0.29-1.58-0.88v-3.27
			c0-0.59,0.5-0.88,1.5-0.88c0.71,0,1.15,0.14,1.31,0.42v-0.42h0.79v1.63h-0.78V65.92L53.35,65.92z M59.38,65.91
			c0-0.14-0.15-0.21-0.46-0.21c-0.31,0-0.46,0.07-0.46,0.21v3.16c0,0.14,0.15,0.21,0.46,0.21c0.31,0,0.46-0.07,0.46-0.21V65.91
			L59.38,65.91z M60.87,69.12c0,0.59-0.5,0.88-1.5,0.88h-0.95c-0.98,0-1.47-0.29-1.47-0.88v-3.27c0-0.59,0.5-0.88,1.5-0.88h0.95
			c0.98,0,1.47,0.3,1.47,0.9V69.12L60.87,69.12z M66.67,67.74l0.95-2.76h1.91v0.73h-0.41v3.58h0.41V70h-2.15v-0.72h0.39v-3.05
			L66.51,70h-0.58l-1.29-3.77v3.05h0.41V70h-1.44v-0.72H64V65.7h-0.39v-0.73h2.26L66.67,67.74L66.67,67.74z M74.19,67.15h0.55
			c0.13,0,0.2-0.06,0.2-0.18v-1.06c0-0.14-0.07-0.21-0.2-0.21h-0.55V67.15L74.19,67.15z M72.34,69.28h0.36V65.7H72.3v-0.73h3.11
			c0.68,0,1.03,0.22,1.03,0.65v1.39c0,0.57-0.34,0.86-1.03,0.86h-1.23v1.41h0.26V70h-2.11V69.28L72.34,69.28z M80.69,68.12h0.97
			l-0.33-1.6l-0.14-0.66l-0.13,0.66L80.69,68.12L80.69,68.12z M80.76,70h-1.82v-0.73h0.56l1.03-4.3h1.66l1.33,4.3h0.32V70h-2.28
			v-0.73h0.34l-0.11-0.53h-1.25l-0.12,0.53h0.33V70L80.76,70z M87.47,69.28h0.41V70h-1.44v-0.72h0.39V65.7h-0.39v-0.73h1.42
			l1.96,2.66V65.7l-0.46,0.01v-0.73h1.5v0.73h-0.41v3.58h0.41V70H89.5l-2.03-2.88V69.28L87.47,69.28z M95.88,66.77l0.21,0.48
			l0.19-0.48l0.56-1.07h-0.46v-0.73h1.82v0.73H97.7l-1.17,2.33v1.25h0.41V70h-2.29v-0.72h0.39v-1.25L93.6,65.7h-0.32v-0.73h2.5v0.73
			h-0.52L95.88,66.77z"/>
		<g>
			<circle fill-rule="evenodd" clip-rule="evenodd" fill="#2E3191" cx="102.49" cy="67.07" r="1.45"/>
			<circle fill-rule="evenodd" clip-rule="evenodd" fill="#2E3191" cx="2.61" cy="67.48" r="1.45"/>
		</g>
	</g>
</g>
</svg>
