<?xml version="1.0" encoding="utf-8"?>
<!-- Generator: Adobe Illustrator 16.0.0, SVG Export Plug-In . SVG Version: 6.00 Build 0)  -->
<!DOCTYPE svg PUBLIC "-//W3C//DTD SVG 1.1//EN" "http://www.w3.org/Graphics/SVG/1.1/DTD/svg11.dtd">
<svg version="1.1" id="Слой_1" xmlns="http://www.w3.org/2000/svg" xmlns:xlink="http://www.w3.org/1999/xlink" x="0px" y="0px"
	 width="60px" height="60px" viewBox="0 0 60 60" enable-background="new 0 0 60 60" xml:space="preserve">
<path fill="#424242" d="M30,0C13.462,0,0,13.462,0,30s13.462,30,30,30s30-13.462,30-30S46.538,0,30,0z M42.536,25.322
	c-0.386,0.384-0.892,0.581-1.406,0.581c-0.514,0-1.022-0.197-1.405-0.581L31.96,17.56v29.653c0,1.096-0.89,1.988-1.987,1.988
	s-1.988-0.891-1.988-1.988V17.551l-7.763,7.762c-0.778,0.768-2.034,0.768-2.765,0.009c-0.778-0.769-0.778-2.016,0-2.794
	l11.146-11.147c0.769-0.778,2.016-0.778,2.793,0l11.14,11.147C43.313,23.297,43.313,24.544,42.536,25.322z"/>
</svg>
