<?xml version="1.0" encoding="utf-8"?>
<!-- Generator: Adobe Illustrator 16.0.0, SVG Export Plug-In . SVG Version: 6.00 Build 0)  -->
<!DOCTYPE svg PUBLIC "-//W3C//DTD SVG 1.1//EN" "http://www.w3.org/Graphics/SVG/1.1/DTD/svg11.dtd">
<svg version="1.1" id="Capa_1" xmlns="http://www.w3.org/2000/svg" xmlns:xlink="http://www.w3.org/1999/xlink" x="0px" y="0px"
	 width="60px" height="38.181px" viewBox="0 0 60 38.181" enable-background="new 0 0 60 38.181" xml:space="preserve">
<g>
	<g>
		<g>
			<path fill="#F39D17" d="M39.583,19.481l-1.938-5.576c-0.242-0.696-0.899-1.164-1.636-1.164h-8.64
				c-1.015,0-1.841,0.826-1.841,1.842v5.237c0,0.816,0.664,1.481,1.48,1.481h0.623c0.521,0,0.944-0.423,0.944-0.943
				c0-0.521-0.422-0.944-0.944-0.944h-0.216v-4.785h8.483l1.663,4.785h-2.35c-0.521,0-0.944,0.423-0.944,0.944
				c0,0.521,0.422,0.943,0.944,0.943h3.077c0.443,0,0.86-0.215,1.117-0.576C39.662,20.365,39.729,19.9,39.583,19.481z"/>
		</g>
	</g>
	<g>
		<g>
			<path fill="#F39D17" d="M22.991,14.282h-2.226c-0.521,0-0.944,0.422-0.944,0.943c0,0.521,0.422,0.944,0.944,0.944h2.226
				c0.521,0,0.944-0.422,0.944-0.944C23.935,14.705,23.513,14.282,22.991,14.282z"/>
		</g>
	</g>
	<g>
		<g>
			<path fill="#F39D17" d="M22.991,18.176h-3.41c-0.521,0-0.944,0.422-0.944,0.944c0,0.521,0.423,0.943,0.944,0.943h3.41
				c0.521,0,0.944-0.422,0.944-0.943C23.935,18.598,23.513,18.176,22.991,18.176z"/>
		</g>
	</g>
	<g>
		<g>
			<path fill="#F39D17" d="M25.713,28.531c-1.637,0-2.968,1.332-2.968,2.968c0,1.637,1.331,2.968,2.968,2.968
				c1.636,0,2.968-1.331,2.968-2.968C28.682,29.862,27.35,28.531,25.713,28.531z M25.713,32.579c-0.596,0-1.081-0.485-1.081-1.081
				c0-0.596,0.484-1.081,1.081-1.081c0.596,0,1.081,0.485,1.081,1.081C26.794,32.094,26.309,32.579,25.713,32.579z"/>
		</g>
	</g>
	<g>
		<g>
			<path fill="#F39D17" d="M46.019,28.531c-1.637,0-2.969,1.332-2.969,2.968c0,1.637,1.332,2.968,2.969,2.968
				c1.636,0,2.968-1.331,2.968-2.968C48.986,29.862,47.655,28.531,46.019,28.531z M46.019,32.579c-0.596,0-1.081-0.485-1.081-1.081
				c0-0.596,0.485-1.081,1.081-1.081c0.596,0,1.08,0.485,1.08,1.081C47.099,32.094,46.614,32.579,46.019,32.579z"/>
		</g>
	</g>
	<g>
		<g>
			<path fill="#F39D17" d="M32.347,20.173c-0.012-0.059-0.03-0.119-0.054-0.176c-0.023-0.056-0.053-0.111-0.087-0.162
				c-0.035-0.052-0.074-0.1-0.118-0.144c-0.043-0.043-0.092-0.083-0.144-0.118c-0.051-0.034-0.106-0.063-0.162-0.087
				c-0.058-0.024-0.117-0.042-0.177-0.054c-0.122-0.025-0.247-0.025-0.369,0c-0.06,0.012-0.12,0.03-0.176,0.054
				c-0.057,0.023-0.112,0.053-0.164,0.087s-0.1,0.074-0.144,0.118c-0.043,0.043-0.083,0.091-0.116,0.144
				c-0.034,0.051-0.063,0.106-0.087,0.162c-0.024,0.058-0.042,0.117-0.054,0.176c-0.013,0.062-0.019,0.124-0.019,0.186
				s0.006,0.124,0.019,0.184c0.012,0.061,0.03,0.12,0.054,0.177c0.023,0.057,0.053,0.112,0.087,0.163
				c0.034,0.052,0.073,0.1,0.116,0.144c0.044,0.043,0.092,0.083,0.144,0.117c0.051,0.034,0.106,0.063,0.164,0.087
				c0.056,0.024,0.116,0.042,0.176,0.054c0.061,0.012,0.123,0.019,0.184,0.019s0.124-0.007,0.185-0.019
				c0.06-0.012,0.119-0.03,0.177-0.054c0.056-0.023,0.111-0.053,0.162-0.087c0.052-0.034,0.1-0.073,0.144-0.117
				c0.043-0.044,0.083-0.092,0.118-0.144c0.034-0.051,0.063-0.106,0.087-0.163s0.042-0.116,0.054-0.177
				c0.012-0.06,0.018-0.122,0.018-0.184S32.359,20.234,32.347,20.173z"/>
		</g>
	</g>
	<g>
		<g>
			<path fill="#F39D17" d="M57.129,25.814v-2.065v-1.476c0-0.115-0.006-0.229-0.017-0.34c-0.171-1.679-1.594-2.994-3.317-2.994l0,0
				h-2.561h-7.438l-2.175-6.234c-0.741-2.124-2.751-3.551-5-3.551h-1.692l0.773-2.751c0.141-0.501-0.151-1.022-0.653-1.164
				c-0.501-0.141-1.022,0.151-1.164,0.653l-0.583,2.076V6.388c0-1.028-0.79-1.874-1.795-1.966V3.011
				c0-0.958-0.779-1.737-1.737-1.737h-1.665V0.944C28.104,0.423,27.682,0,27.161,0c-0.521,0-0.943,0.422-0.943,0.943v0.331H24.58
				c-0.958,0-1.738,0.779-1.738,1.737v1.402h-0.219c-1.089,0-1.975,0.886-1.975,1.975v2.214l-0.659-2.384
				c-0.139-0.502-0.659-0.797-1.161-0.658c-0.503,0.139-0.797,0.658-0.659,1.161l0.689,2.492c-1.846,0.324-3.253,1.938-3.253,3.875
				v5.57h-1.667c-1.242,0-2.252,1.01-2.252,2.251v7.344c0,1.241,1.01,2.251,2.252,2.251h1.772c0.321,1.117,1.353,1.937,2.572,1.937
				h0.815c0.213,1.502,0.927,2.844,1.968,3.853H6.624c-0.521,0-0.944,0.422-0.944,0.943s0.422,0.943,0.944,0.943h26.761
				c0.521,0,0.944-0.422,0.944-0.943s-0.423-0.943-0.944-0.943h-3.024c1.04-1.008,1.754-2.351,1.968-3.853h7.075
				c0.213,1.502,0.927,2.844,1.967,3.853h-2.229c-0.521,0-0.943,0.422-0.943,0.943s0.423,0.943,0.943,0.943h14.094
				c0.521,0,0.943-0.422,0.943-0.943s-0.422-0.943-0.943-0.943h-2.57c1.04-1.008,1.754-2.351,1.968-3.853h0.818
				c0.07,1.151,1.027,2.065,2.195,2.065h1.221c1.727,0,3.132-1.406,3.132-3.132v-2.44C60,27.296,58.734,25.947,57.129,25.814z
				 M15.606,27.624v0.994h-1.667c-0.201,0-0.365-0.164-0.365-0.364v-7.344c0-0.201,0.164-0.364,0.365-0.364h1.667V27.624z
				 M28.104,3.161h1.515v1.252h-1.515V3.161z M28.104,6.302h2.458h0.763c0.048,0,0.088,0.039,0.088,0.087v2.765h-3.31V6.302z
				 M24.729,3.161h1.489v1.252h-1.489V3.161z M22.535,6.388c0-0.048,0.039-0.087,0.087-0.087h1.163h2.432v2.852h-3.683V6.388z
				 M19.559,28.893c-0.002,0.005-0.004,0.011-0.006,0.016c-0.026,0.063-0.052,0.125-0.076,0.188c0,0.001,0,0.001,0,0.002
				c-0.01,0.027-0.02,0.055-0.031,0.082c-0.004,0.013-0.009,0.026-0.014,0.039c-0.017,0.046-0.033,0.093-0.049,0.139
				c-0.006,0.02-0.013,0.039-0.02,0.058c-0.01,0.031-0.021,0.062-0.03,0.093c-0.001,0.002-0.001,0.005-0.003,0.007
				c-0.011,0.036-0.021,0.072-0.032,0.108c-0.008,0.028-0.016,0.056-0.024,0.084c-0.01,0.036-0.02,0.071-0.029,0.107
				c-0.006,0.023-0.011,0.046-0.017,0.069c0,0.004-0.001,0.008-0.003,0.012c-0.007,0.032-0.016,0.064-0.023,0.096
				c-0.009,0.039-0.017,0.077-0.025,0.115c-0.006,0.032-0.013,0.063-0.02,0.094c-0.004,0.025-0.01,0.049-0.015,0.073
				c-0.009,0.046-0.016,0.093-0.023,0.139c-0.006,0.034-0.012,0.068-0.016,0.103c-0.001,0.004-0.002,0.008-0.002,0.012
				c-0.001,0.009-0.003,0.018-0.004,0.026h-0.813c-0.436,0-0.79-0.354-0.79-0.79v-0.204v-0.994h2.214
				C19.654,28.674,19.606,28.784,19.559,28.893z M25.713,36.294c-2.645,0-4.795-2.151-4.795-4.795v0
				c0-0.079,0.002-0.158,0.006-0.235c0.001-0.029,0.004-0.057,0.006-0.085c0.003-0.049,0.006-0.099,0.011-0.148
				c0.003-0.034,0.007-0.067,0.012-0.101c0.005-0.043,0.01-0.087,0.016-0.13c0.005-0.035,0.012-0.069,0.017-0.104
				c0.008-0.042,0.015-0.083,0.023-0.125c0.006-0.034,0.014-0.067,0.021-0.101c0.009-0.042,0.019-0.085,0.029-0.127
				c0.008-0.031,0.016-0.062,0.025-0.093c0.012-0.045,0.024-0.09,0.038-0.135c0.008-0.026,0.016-0.053,0.024-0.08
				c0.017-0.05,0.033-0.099,0.05-0.148c0.008-0.021,0.015-0.041,0.022-0.062c0.021-0.056,0.042-0.112,0.066-0.167
				c0.005-0.013,0.011-0.026,0.016-0.039c0.027-0.064,0.056-0.128,0.086-0.19c0.002-0.003,0.004-0.008,0.005-0.011
				c0.641-1.326,1.875-2.314,3.355-2.617c0.312-0.064,0.635-0.098,0.965-0.098c1.899,0,3.544,1.11,4.321,2.715
				c0.001,0.003,0.003,0.008,0.005,0.011c0.031,0.063,0.06,0.126,0.086,0.191c0.006,0.013,0.011,0.025,0.016,0.038
				c0.023,0.056,0.045,0.111,0.066,0.167c0.008,0.021,0.015,0.041,0.021,0.061c0.019,0.05,0.035,0.1,0.051,0.149
				c0.008,0.026,0.016,0.052,0.024,0.079c0.014,0.045,0.026,0.091,0.039,0.136c0.008,0.031,0.017,0.061,0.024,0.092
				c0.011,0.042,0.021,0.085,0.03,0.128c0.007,0.033,0.015,0.066,0.021,0.1c0.008,0.042,0.015,0.084,0.022,0.126
				c0.006,0.035,0.013,0.069,0.017,0.104c0.006,0.043,0.012,0.086,0.017,0.13c0.003,0.033,0.008,0.067,0.012,0.101
				c0.005,0.049,0.008,0.099,0.011,0.148c0.001,0.028,0.004,0.057,0.006,0.085c0.004,0.078,0.006,0.156,0.006,0.235
				C30.509,34.143,28.357,36.294,25.713,36.294z M39.863,28.895c-0.001,0.004-0.003,0.007-0.005,0.012
				c-0.039,0.091-0.074,0.183-0.109,0.275c-0.004,0.012-0.009,0.022-0.013,0.034c-0.017,0.047-0.033,0.094-0.049,0.142
				c-0.007,0.019-0.013,0.037-0.019,0.056c-0.01,0.032-0.021,0.064-0.032,0.097c0,0.001,0,0.002,0,0.002
				c-0.012,0.037-0.021,0.074-0.033,0.11c-0.008,0.028-0.016,0.055-0.023,0.083c-0.01,0.037-0.021,0.073-0.03,0.109
				c-0.005,0.021-0.011,0.043-0.016,0.065c-0.001,0.005-0.002,0.011-0.004,0.016c-0.008,0.032-0.015,0.063-0.023,0.095
				c-0.009,0.039-0.017,0.077-0.026,0.116c-0.006,0.031-0.013,0.063-0.019,0.094c-0.005,0.024-0.01,0.049-0.015,0.073
				c-0.009,0.046-0.016,0.093-0.023,0.14c-0.006,0.034-0.012,0.068-0.017,0.102c0,0.004-0.001,0.009-0.001,0.013
				c-0.001,0.009-0.003,0.017-0.005,0.026H32.33c-0.001-0.009-0.003-0.017-0.004-0.026c0-0.004-0.001-0.009-0.002-0.014
				c-0.005-0.033-0.011-0.065-0.016-0.099c-0.008-0.047-0.016-0.095-0.024-0.142c-0.004-0.024-0.009-0.049-0.015-0.074
				c-0.006-0.031-0.012-0.062-0.019-0.092c-0.008-0.039-0.017-0.078-0.025-0.117c-0.007-0.032-0.016-0.064-0.023-0.096
				c-0.001-0.005-0.003-0.011-0.004-0.017c-0.005-0.021-0.01-0.042-0.016-0.063c-0.01-0.037-0.02-0.073-0.029-0.108
				c-0.008-0.028-0.016-0.056-0.024-0.084c-0.011-0.037-0.021-0.073-0.032-0.109c0,0,0-0.001,0-0.002
				c-0.01-0.033-0.021-0.065-0.032-0.097c-0.006-0.019-0.012-0.038-0.019-0.058c-0.016-0.047-0.032-0.094-0.049-0.14
				c-0.004-0.012-0.009-0.023-0.013-0.035c-0.011-0.028-0.021-0.057-0.032-0.084c0,0,0,0,0,0c-0.025-0.064-0.05-0.127-0.078-0.19
				c-0.001-0.005-0.003-0.008-0.005-0.013c-0.046-0.11-0.095-0.22-0.148-0.327h8.291C39.958,28.675,39.91,28.784,39.863,28.895z
				 M46.019,36.294c-2.645,0-4.796-2.151-4.796-4.796c0-0.079,0.002-0.158,0.006-0.235c0.001-0.029,0.004-0.057,0.006-0.085
				c0.003-0.049,0.007-0.099,0.012-0.148c0.003-0.034,0.007-0.067,0.012-0.101c0.004-0.043,0.01-0.087,0.016-0.13
				c0.005-0.035,0.011-0.069,0.017-0.104c0.007-0.042,0.014-0.083,0.022-0.125c0.006-0.034,0.014-0.067,0.021-0.101
				c0.009-0.042,0.019-0.085,0.03-0.127c0.008-0.031,0.016-0.062,0.024-0.093c0.012-0.045,0.025-0.09,0.038-0.135
				c0.008-0.026,0.017-0.053,0.025-0.079c0.016-0.05,0.032-0.1,0.05-0.149c0.007-0.021,0.015-0.041,0.022-0.062
				c0.021-0.056,0.043-0.112,0.066-0.167c0.005-0.013,0.011-0.026,0.017-0.039c0.027-0.064,0.056-0.127,0.086-0.19
				c0.002-0.004,0.003-0.008,0.005-0.012c0.776-1.605,2.421-2.715,4.32-2.715c1.9,0,3.544,1.11,4.321,2.715
				c0.002,0.004,0.003,0.008,0.005,0.012c0.03,0.063,0.059,0.126,0.086,0.19c0.006,0.013,0.011,0.026,0.017,0.039
				c0.023,0.055,0.045,0.111,0.066,0.167c0.007,0.021,0.015,0.041,0.022,0.062c0.018,0.049,0.034,0.099,0.05,0.149
				c0.008,0.026,0.017,0.053,0.025,0.079c0.013,0.045,0.026,0.09,0.038,0.135c0.009,0.031,0.016,0.062,0.024,0.093
				c0.011,0.042,0.021,0.084,0.03,0.127c0.007,0.034,0.015,0.067,0.021,0.101c0.008,0.041,0.016,0.083,0.022,0.125
				c0.006,0.035,0.012,0.069,0.017,0.104c0.006,0.043,0.012,0.086,0.016,0.13c0.004,0.033,0.009,0.067,0.013,0.101
				c0.004,0.049,0.007,0.099,0.011,0.148c0.002,0.028,0.004,0.057,0.006,0.085c0.004,0.078,0.006,0.156,0.006,0.235
				C50.814,34.143,48.663,36.294,46.019,36.294z M53.447,30.554h-0.813c-0.001-0.009-0.003-0.017-0.004-0.026
				c-0.001-0.004-0.002-0.008-0.002-0.013c-0.005-0.034-0.011-0.068-0.017-0.102c-0.007-0.047-0.015-0.094-0.023-0.14
				c-0.004-0.024-0.01-0.048-0.015-0.073c-0.006-0.031-0.012-0.063-0.019-0.094c-0.008-0.039-0.017-0.077-0.025-0.116
				c-0.008-0.032-0.015-0.063-0.023-0.095c-0.001-0.005-0.002-0.011-0.004-0.016c-0.005-0.022-0.01-0.043-0.016-0.065
				c-0.01-0.037-0.02-0.073-0.03-0.109c-0.008-0.027-0.015-0.055-0.023-0.083c-0.011-0.036-0.021-0.073-0.032-0.11
				c0,0,0-0.001,0-0.002c-0.01-0.032-0.021-0.065-0.032-0.097c-0.006-0.019-0.012-0.038-0.018-0.056
				c-0.017-0.048-0.033-0.095-0.049-0.142c-0.005-0.012-0.009-0.022-0.014-0.034c-0.034-0.093-0.07-0.185-0.108-0.275
				c-0.001-0.004-0.003-0.008-0.005-0.012c-0.047-0.111-0.095-0.221-0.147-0.328h1.422V30.554L53.447,30.554z M55.242,25.84
				c-0.003,0-0.007,0.001-0.011,0.002c-0.056,0.011-0.111,0.023-0.165,0.039c-0.009,0.002-0.018,0.004-0.027,0.007
				c-0.055,0.016-0.108,0.033-0.161,0.053c-0.006,0.002-0.012,0.005-0.018,0.007c-0.055,0.021-0.109,0.044-0.162,0.069
				c0,0-0.001,0-0.001,0c-0.052,0.025-0.103,0.053-0.153,0.082c-0.007,0.004-0.014,0.008-0.02,0.011
				c-0.047,0.028-0.093,0.059-0.138,0.09c-0.008,0.005-0.016,0.011-0.023,0.017c-0.044,0.032-0.088,0.065-0.13,0.101
				c-0.006,0.005-0.012,0.011-0.018,0.016c-0.043,0.037-0.085,0.076-0.125,0.116c-0.002,0.001-0.003,0.003-0.004,0.004
				c-0.04,0.041-0.079,0.082-0.115,0.125c-0.004,0.005-0.008,0.009-0.012,0.014c-0.023,0.028-0.046,0.057-0.069,0.086h-3.246
				c-0.025-0.024-0.053-0.048-0.079-0.073c-0.033-0.03-0.066-0.062-0.1-0.091c-0.044-0.039-0.088-0.077-0.132-0.115
				c-0.034-0.029-0.068-0.058-0.103-0.085c-0.046-0.038-0.094-0.075-0.141-0.111c-0.034-0.026-0.067-0.053-0.102-0.078
				c-0.051-0.038-0.104-0.074-0.156-0.111c-0.032-0.022-0.063-0.045-0.096-0.067c-0.063-0.042-0.127-0.083-0.191-0.123
				c-0.023-0.014-0.045-0.029-0.069-0.043c-0.088-0.054-0.177-0.105-0.268-0.154c-0.023-0.013-0.047-0.024-0.071-0.037
				c-0.067-0.036-0.136-0.071-0.205-0.105c-0.035-0.017-0.071-0.033-0.106-0.049c-0.059-0.027-0.118-0.055-0.177-0.081
				c-0.039-0.016-0.08-0.032-0.12-0.048c-0.057-0.023-0.113-0.046-0.171-0.067c-0.042-0.016-0.084-0.031-0.126-0.046
				c-0.057-0.02-0.114-0.039-0.17-0.058c-0.043-0.013-0.087-0.027-0.131-0.041c-0.058-0.017-0.115-0.033-0.173-0.049
				c-0.044-0.012-0.089-0.023-0.134-0.035c-0.059-0.014-0.118-0.028-0.177-0.041c-0.045-0.009-0.09-0.02-0.135-0.028
				c-0.061-0.012-0.122-0.022-0.184-0.033c-0.044-0.008-0.088-0.015-0.133-0.021c-0.064-0.01-0.129-0.017-0.194-0.025
				c-0.042-0.005-0.084-0.011-0.127-0.015c-0.072-0.007-0.145-0.012-0.217-0.017c-0.036-0.002-0.072-0.006-0.108-0.007
				c-0.109-0.005-0.219-0.008-0.329-0.008c-0.111,0-0.221,0.003-0.33,0.008c-0.036,0.001-0.072,0.005-0.108,0.007
				c-0.072,0.005-0.145,0.01-0.217,0.017c-0.042,0.004-0.085,0.01-0.127,0.015c-0.065,0.008-0.13,0.015-0.195,0.025
				c-0.044,0.006-0.088,0.014-0.133,0.021c-0.061,0.011-0.123,0.021-0.184,0.033c-0.045,0.009-0.089,0.019-0.134,0.028
				c-0.06,0.013-0.119,0.027-0.177,0.041c-0.045,0.011-0.089,0.023-0.134,0.035c-0.058,0.016-0.115,0.032-0.173,0.049
				c-0.044,0.014-0.088,0.027-0.131,0.041c-0.058,0.019-0.114,0.038-0.171,0.058c-0.042,0.015-0.085,0.03-0.126,0.046
				c-0.057,0.021-0.115,0.044-0.171,0.067c-0.04,0.016-0.08,0.031-0.119,0.048c-0.06,0.026-0.118,0.053-0.177,0.081
				c-0.036,0.017-0.072,0.032-0.107,0.049c-0.068,0.034-0.136,0.069-0.205,0.105c-0.023,0.013-0.047,0.024-0.071,0.037
				c-0.09,0.049-0.179,0.101-0.267,0.154c-0.023,0.014-0.046,0.029-0.069,0.043c-0.064,0.041-0.129,0.081-0.191,0.123
				c-0.033,0.022-0.064,0.045-0.097,0.067c-0.052,0.037-0.104,0.073-0.155,0.111c-0.035,0.025-0.068,0.052-0.102,0.078
				c-0.048,0.037-0.095,0.073-0.142,0.111c-0.035,0.028-0.068,0.057-0.102,0.085c-0.044,0.038-0.089,0.076-0.132,0.115
				c-0.034,0.03-0.067,0.061-0.1,0.091c-0.026,0.025-0.053,0.049-0.079,0.073H30.339c-0.025-0.024-0.052-0.048-0.078-0.072
				c-0.034-0.032-0.067-0.063-0.102-0.094c-0.042-0.038-0.086-0.075-0.13-0.113c-0.035-0.029-0.069-0.059-0.104-0.087
				c-0.045-0.037-0.092-0.073-0.139-0.109c-0.035-0.027-0.069-0.054-0.104-0.08c-0.05-0.037-0.101-0.073-0.152-0.108
				c-0.033-0.023-0.066-0.047-0.1-0.07c-0.061-0.041-0.123-0.08-0.186-0.119c-0.024-0.016-0.049-0.032-0.074-0.048
				c-0.088-0.053-0.177-0.104-0.267-0.153c-0.025-0.014-0.052-0.026-0.077-0.04c-0.066-0.034-0.132-0.069-0.199-0.102
				c-0.036-0.018-0.072-0.034-0.109-0.051c-0.058-0.027-0.116-0.054-0.174-0.079c-0.04-0.017-0.081-0.033-0.121-0.049
				c-0.056-0.023-0.113-0.046-0.17-0.067c-0.042-0.016-0.085-0.031-0.127-0.046c-0.056-0.02-0.113-0.039-0.169-0.058
				c-0.044-0.014-0.088-0.027-0.132-0.04c-0.058-0.017-0.115-0.034-0.172-0.049c-0.045-0.012-0.089-0.023-0.135-0.035
				c-0.059-0.015-0.117-0.028-0.176-0.041c-0.045-0.01-0.09-0.02-0.135-0.029c-0.061-0.012-0.122-0.022-0.183-0.032
				c-0.044-0.007-0.088-0.015-0.133-0.022c-0.064-0.01-0.129-0.017-0.193-0.025c-0.043-0.004-0.085-0.01-0.128-0.015
				c-0.072-0.007-0.144-0.012-0.217-0.016c-0.036-0.002-0.072-0.006-0.108-0.008c-0.109-0.005-0.218-0.009-0.329-0.009
				c-0.11,0-0.22,0.003-0.33,0.009c-0.036,0.002-0.072,0.005-0.107,0.008c-0.073,0.004-0.146,0.009-0.218,0.016
				c-0.042,0.004-0.085,0.01-0.127,0.015c-0.065,0.008-0.129,0.015-0.194,0.025c-0.044,0.007-0.089,0.015-0.134,0.022
				c-0.061,0.01-0.122,0.021-0.183,0.032c-0.045,0.009-0.09,0.019-0.135,0.029c-0.059,0.013-0.119,0.026-0.177,0.041
				c-0.044,0.011-0.089,0.023-0.134,0.035c-0.058,0.016-0.115,0.032-0.172,0.049c-0.044,0.013-0.088,0.026-0.132,0.04
				c-0.057,0.019-0.113,0.038-0.169,0.058c-0.043,0.015-0.085,0.03-0.128,0.046c-0.057,0.021-0.112,0.044-0.168,0.066
				c-0.041,0.017-0.082,0.033-0.122,0.05c-0.058,0.025-0.116,0.052-0.173,0.079c-0.037,0.017-0.073,0.034-0.11,0.051
				c-0.066,0.032-0.132,0.066-0.197,0.101c-0.026,0.014-0.053,0.026-0.079,0.041c-0.09,0.049-0.179,0.1-0.267,0.153
				c-0.026,0.016-0.051,0.033-0.076,0.049c-0.062,0.039-0.124,0.077-0.183,0.118c-0.035,0.023-0.068,0.047-0.102,0.071
				c-0.05,0.035-0.102,0.07-0.15,0.107c-0.036,0.026-0.071,0.054-0.106,0.081c-0.045,0.036-0.092,0.071-0.137,0.107
				c-0.036,0.029-0.071,0.06-0.106,0.089c-0.042,0.037-0.086,0.074-0.128,0.112c-0.035,0.031-0.069,0.062-0.104,0.094
				c-0.025,0.024-0.052,0.047-0.077,0.071h-3.595v-7.078v-6.513c0-1.129,0.919-2.048,2.048-2.048h0.534c0.002,0,0.004,0,0.006,0
				c0.001,0,0.003,0,0.004,0h1.506h10.766h1.322c0.001,0,0.003,0,0.004,0c0.002,0,0.005,0,0.007,0h2.93
				c1.448,0,2.741,0.919,3.218,2.286l2.396,6.867c0.132,0.379,0.489,0.633,0.891,0.633h7.164v1.793c0,1.144,0.931,2.074,2.074,2.074
				h2.878V25.84z M55.242,22.805h-2.878c-0.103,0-0.186-0.084-0.186-0.187v-1.793h1.617c0.698,0,1.283,0.497,1.418,1.156
				c0.019,0.094,0.029,0.191,0.029,0.291V22.805z M58.113,31.375c0,0.687-0.559,1.245-1.245,1.245h-1.221
				c-0.172,0-0.312-0.14-0.312-0.313v-0.809v-3.498c0-0.019,0.002-0.039,0.006-0.057c0.001-0.005,0.002-0.01,0.003-0.015
				c0.013-0.058,0.042-0.109,0.083-0.149c0.056-0.057,0.134-0.092,0.22-0.092h0.539c0,0,0.001,0,0.002,0h0.68
				c0.686,0,1.245,0.559,1.245,1.246V31.375z"/>
		</g>
	</g>
	<g>
		<g>
			<path fill="#F39D17" d="M7.922,32.354H3.648c-0.521,0-0.943,0.422-0.943,0.943s0.423,0.944,0.943,0.944h4.273
				c0.521,0,0.944-0.423,0.944-0.944S8.443,32.354,7.922,32.354z"/>
		</g>
	</g>
	<g>
		<g>
			<path fill="#F39D17" d="M3.17,28.531H0.943C0.422,28.531,0,28.953,0,29.474s0.422,0.944,0.943,0.944H3.17
				c0.521,0,0.943-0.423,0.943-0.944S3.691,28.531,3.17,28.531z"/>
		</g>
	</g>
</g>
</svg>
