<?xml version="1.0" encoding="utf-8"?>
<!-- Generator: Adobe Illustrator 16.0.0, SVG Export Plug-In . SVG Version: 6.00 Build 0)  -->
<!DOCTYPE svg PUBLIC "-//W3C//DTD SVG 1.1//EN" "http://www.w3.org/Graphics/SVG/1.1/DTD/svg11.dtd">
<svg version="1.1" id="Слой_1" xmlns="http://www.w3.org/2000/svg" xmlns:xlink="http://www.w3.org/1999/xlink" x="0px" y="0px"
	 width="64px" height="64px" viewBox="0 0 64 64" enable-background="new 0 0 64 64" xml:space="preserve">
<g>
	<path fill="#55AC45" d="M14.67,22.67c3.67,0,6.67-2.99,6.67-6.67s-2.99-6.67-6.67-6.67C10.99,9.33,8,12.33,8,16
		S10.99,22.67,14.67,22.67z M14.67,12c2.21,0,4,1.79,4,4s-1.79,4-4,4s-4-1.79-4-4S12.46,12,14.67,12z"/>
	<path fill="#55AC45" d="M63.41,25.56L48,15.29V5.33C48,4.6,47.4,4,46.67,4H1.33C0.6,4,0,4.6,0,5.33v40c0,0.05,0.02,0.09,0.03,0.13
		c0.01,0.09,0.03,0.181,0.06,0.28c0.02,0.08,0.05,0.14,0.09,0.21c0.04,0.079,0.09,0.149,0.15,0.22c0.05,0.061,0.11,0.12,0.18,0.17
		c0.04,0.03,0.06,0.08,0.11,0.1c0.04,0.021,0.07,0.021,0.11,0.041c0.07,0.039,0.15,0.069,0.23,0.09c0.09,0.029,0.18,0.05,0.28,0.06
		c0.04,0,0.07,0.021,0.1,0.021h18.32l23.699,13.17C43.55,59.95,43.779,60,44,60c0.46,0,0.91-0.24,1.16-0.66l18.67-32
		C64.17,26.73,63.99,25.95,63.41,25.56z M3.77,44l9.78-15.22l6.83,6.83c0.29,0.291,0.71,0.431,1.12,0.381
		c0.41-0.061,0.78-0.301,0.98-0.66l9.43-16.5L44.51,44H3.77z M45.33,6.67v33.02L33.189,15.4c-0.219-0.44-0.66-0.72-1.16-0.74
		c-0.51-0.02-0.95,0.25-1.19,0.67l-9.8,17.15l-6.77-6.77c-0.29-0.29-0.69-0.43-1.08-0.38c-0.4,0.05-0.76,0.27-0.98,0.61L2.67,40.79
		V6.67H45.33z M43.51,56.87l-18.36-10.2h21.52c0.16,0,0.311-0.04,0.46-0.09c0.03-0.01,0.06-0.02,0.091-0.03
		c0.01-0.01,0.029-0.01,0.049-0.021c0.051-0.029,0.09-0.069,0.131-0.1c0.09-0.06,0.17-0.119,0.25-0.189
		c0.05-0.061,0.09-0.131,0.129-0.2c0.051-0.08,0.101-0.149,0.131-0.229c0.029-0.09,0.04-0.19,0.061-0.281
		C47.971,45.46,48,45.4,48,45.33V18.49l12.88,8.59L43.51,56.87z"/>
</g>
</svg>
