<?xml version="1.0" encoding="utf-8"?>
<!-- Generator: Adobe Illustrator 16.0.0, SVG Export Plug-In . SVG Version: 6.00 Build 0)  -->
<!DOCTYPE svg PUBLIC "-//W3C//DTD SVG 1.1//EN" "http://www.w3.org/Graphics/SVG/1.1/DTD/svg11.dtd">
<svg version="1.1" id="Слой_1" xmlns="http://www.w3.org/2000/svg" xmlns:xlink="http://www.w3.org/1999/xlink" x="0px" y="0px"
	 width="64px" height="64px" viewBox="0 0 64 64" enable-background="new 0 0 64 64" xml:space="preserve">
<g>
	<g>
		<g>
			<polygon fill="#55AC45" points="24.97,48.971 9.51,31.62 12.49,28.96 25.03,43.029 51.54,14.63 54.46,17.37 			"/>
		</g>
	</g>
	<g>
		<g>
			<path fill="#55AC45" d="M56,64H8c-3.89,0-8-4.109-8-8V8c0-3.89,4.11-8,8-8h48c3.891,0,8,4.11,8,8v48C64,59.891,59.891,64,56,64z
				 M8,4C6.35,4,4,6.35,4,8v48c0,1.641,2.35,4,4,4h48c1.641,0,4-2.359,4-4V8c0-1.65-2.359-4-4-4H8z"/>
		</g>
	</g>
</g>
</svg>
