<?xml version="1.0" encoding="utf-8"?>
<!-- Generator: Adobe Illustrator 16.0.0, SVG Export Plug-In . SVG Version: 6.00 Build 0)  -->
<!DOCTYPE svg PUBLIC "-//W3C//DTD SVG 1.1//EN" "http://www.w3.org/Graphics/SVG/1.1/DTD/svg11.dtd">
<svg version="1.1" id="Слой_1" xmlns="http://www.w3.org/2000/svg" xmlns:xlink="http://www.w3.org/1999/xlink" x="0px" y="0px"
	 width="16px" height="16px" viewBox="0 0 16 16" enable-background="new 0 0 16 16" xml:space="preserve">
<g>
	<g>
		<path fill="#4CB2DB" d="M7.906,1C4.041,1.052,0.949,4.229,1,8.095C1.052,11.958,4.228,15.052,8.094,15
			c3.865-0.053,6.958-3.229,6.905-7.095C14.948,4.042,11.771,0.949,7.906,1z M8.683,3.333c0.711,0,0.921,0.414,0.921,0.885
			c0,0.589-0.472,1.136-1.277,1.136c-0.674,0-0.995-0.339-0.976-0.9C7.351,3.982,7.746,3.333,8.683,3.333z M6.858,12.375
			c-0.486,0-0.843-0.294-0.502-1.593L6.914,8.48c0.097-0.369,0.113-0.516,0-0.516c-0.146,0-0.777,0.254-1.15,0.505L5.521,8.071
			c1.183-0.988,2.543-1.567,3.126-1.567c0.486,0,0.567,0.575,0.325,1.46l-0.639,2.419c-0.114,0.428-0.065,0.574,0.048,0.574
			c0.147,0,0.625-0.176,1.094-0.545l0.275,0.369C8.6,11.933,7.344,12.375,6.858,12.375z"/>
	</g>
</g>
</svg>
