<?xml version="1.0" encoding="utf-8"?>
<!-- Generator: Adobe Illustrator 16.0.0, SVG Export Plug-In . SVG Version: 6.00 Build 0)  -->
<!DOCTYPE svg PUBLIC "-//W3C//DTD SVG 1.1//EN" "http://www.w3.org/Graphics/SVG/1.1/DTD/svg11.dtd">
<svg version="1.1" id="Слой_1" xmlns="http://www.w3.org/2000/svg" xmlns:xlink="http://www.w3.org/1999/xlink" x="0px" y="0px"
	 width="64px" height="64px" viewBox="0 0 64 64" enable-background="new 0 0 64 64" xml:space="preserve">
<g>
	<g>
		<g>
			<path fill="#55AC45" d="M17.24,54.141c-0.5,0.859-0.96,1.639-1.38,2.31c-0.81,1.271-2.21,2.04-3.72,2.04
				c-1.51,0-2.91-0.77-3.72-2.04C8,55.779,7.54,55,7.04,54.141C2.43,55.01,0,56.859,0,58.29c0,2.17,5.19,4.61,12.14,4.61
				c6.95,0,12.14-2.44,12.14-4.61C24.28,56.859,21.85,55.01,17.24,54.141z"/>
			<path fill="#55AC45" d="M12.14,18.76C5.43,18.77-0.01,24.23,0,30.94c0,4.669,6.24,17.97,10.29,24.31
				c0.4,0.641,1.1,1.029,1.85,1.029s1.45-0.389,1.85-1.029c4.05-6.35,10.29-19.65,10.29-24.31C24.29,24.23,18.86,18.77,12.14,18.76z
				 M12.14,39.73c-4.88,0-8.83-3.951-8.83-8.831c0-4.88,3.95-8.83,8.83-8.83c4.88,0,8.83,3.95,8.83,8.83
				C20.96,35.77,17.01,39.721,12.14,39.73z"/>
			<path fill="#55AC45" d="M12.14,24.27c-3.66,0-6.62,2.97-6.62,6.62c0,3.65,2.97,6.62,6.62,6.62s6.62-2.96,6.62-6.62
				C18.76,27.24,15.8,24.28,12.14,24.27z"/>
			<path fill="#55AC45" d="M54.08,30.9c4.18,0,7.73-2.02,7.73-4.42c0-1.36-1.211-2.68-3.15-3.53c-0.65,1.21-1.28,2.29-1.79,3.1
				c-0.61,0.95-1.66,1.53-2.79,1.53S51.9,27,51.29,26.05c-0.511-0.81-1.14-1.89-1.79-3.1c-1.93,0.85-3.15,2.17-3.15,3.53
				C46.35,28.88,49.9,30.9,54.08,30.9z"/>
			<path fill="#55AC45" d="M54.08,25.36c0.37,0,0.72-0.18,0.93-0.49c2.67-4.2,6.801-12.97,6.801-16.01c0-4.27-3.451-7.75-7.73-7.76
				c-4.27,0.01-7.73,3.48-7.73,7.76c0,3.05,4.131,11.81,6.801,16.01C53.359,25.18,53.71,25.36,54.08,25.36z M48.561,8.82
				c0-3.05,2.469-5.52,5.52-5.52c3.05,0,5.52,2.47,5.52,5.52c0,3.05-2.47,5.52-5.52,5.52C51.029,14.34,48.561,11.87,48.561,8.82z"/>
			<path fill="#55AC45" d="M57.391,8.82c0-1.83-1.48-3.31-3.311-3.31S50.77,6.99,50.77,8.82s1.48,3.31,3.311,3.31
				S57.391,10.65,57.391,8.82z"/>
			<path fill="#55AC45" d="M28.7,57.391h-1.1c-0.61,0-1.1,0.5-1.1,1.1s0.49,1.1,1.1,1.1h1.1c0.61,0,1.1-0.49,1.1-1.1
				C29.8,57.88,29.3,57.391,28.7,57.391z"/>
			<path fill="#55AC45" d="M42.02,57.391H39.8c-0.61,0-1.1,0.5-1.1,1.1s0.5,1.1,1.1,1.1h2.22c0.61,0,1.101-0.49,1.101-1.1
				C43.12,57.88,42.63,57.391,42.02,57.391z"/>
			<path fill="#55AC45" d="M39.779,36.41c0-0.61-0.489-1.1-1.1-1.1h-2.22c-0.61,0-1.101,0.489-1.101,1.1c0,0.609,0.5,1.1,1.101,1.1
				h2.22C39.279,37.52,39.779,37.02,39.779,36.41z"/>
			<path fill="#55AC45" d="M35.23,27.59h2.22c0.61,0,1.1-0.49,1.1-1.1c0-0.61-0.489-1.1-1.1-1.1h-2.22c-0.61,0-1.101,0.49-1.101,1.1
				C34.13,27.09,34.62,27.59,35.23,27.59z"/>
			<path fill="#55AC45" d="M30.06,30.97L30.06,30.97c0.47,0,0.9-0.3,1.05-0.75c0.18-0.55,0.49-1.05,0.89-1.46
				c0.42-0.44,0.41-1.14-0.02-1.56c-0.44-0.42-1.14-0.41-1.56,0.02c-0.63,0.65-1.11,1.44-1.4,2.3c-0.11,0.34-0.06,0.71,0.15,1
				C29.37,30.8,29.7,30.97,30.06,30.97z"/>
			<path fill="#55AC45" d="M60.67,40.721c-0.52,0.319-0.67,1-0.35,1.52c0.35,0.57,0.65,1.16,0.88,1.789
				c0.159,0.431,0.569,0.721,1.04,0.721c0.359,0,0.699-0.18,0.9-0.471c0.209-0.289,0.25-0.67,0.129-1.01
				c-0.279-0.76-0.64-1.5-1.069-2.189C61.87,40.55,61.189,40.391,60.67,40.721z"/>
			<path fill="#55AC45" d="M35.359,57.391h-2.219c-0.611,0-1.101,0.5-1.101,1.1s0.489,1.1,1.101,1.1h2.219
				c0.611,0,1.101-0.49,1.101-1.1C36.46,57.88,35.971,57.391,35.359,57.391z"/>
			<path fill="#55AC45" d="M62.95,46.91c-0.61-0.03-1.12,0.439-1.16,1.04c-0.03,0.659-0.13,1.319-0.3,1.97
				c-0.08,0.33-0.01,0.68,0.199,0.95c0.211,0.271,0.531,0.43,0.871,0.43c0.5,0,0.939-0.34,1.069-0.829
				c0.2-0.791,0.33-1.601,0.37-2.41C64.02,47.45,63.55,46.93,62.95,46.91z"/>
			<path fill="#55AC45" d="M46.4,36.41c-0.021-0.62-0.53-1.11-1.15-1.1h-2.141c-0.609,0-1.1,0.489-1.1,1.1c0,0.609,0.49,1.1,1.1,1.1
				h2.221c0.29,0,0.561-0.119,0.76-0.33C46.3,36.98,46.41,36.7,46.4,36.41z"/>
			<path fill="#55AC45" d="M61.3,53.279C60.82,52.91,60.12,53,59.75,53.48c-0.41,0.529-0.859,1.02-1.37,1.459
				c-0.351,0.301-0.47,0.791-0.31,1.221s0.57,0.72,1.029,0.72c0.271,0,0.521-0.101,0.721-0.271c0.609-0.529,1.17-1.129,1.67-1.77
				C61.88,54.34,61.779,53.65,61.3,53.279z"/>
			<path fill="#55AC45" d="M53.1,36.42c0-0.609-0.49-1.109-1.1-1.109h-2.23c-0.609,0-1.1,0.489-1.1,1.1c0,0.609,0.5,1.1,1.1,1.1
				h2.211h0.01C52.6,37.52,53.1,37.029,53.1,36.42z"/>
			<path fill="#55AC45" d="M32.15,36.779c0.491,0,0.93-0.329,1.06-0.799c0.13-0.471-0.06-0.98-0.479-1.24
				c-0.49-0.301-0.911-0.721-1.221-1.2c-0.33-0.511-1.01-0.66-1.53-0.33c-0.51,0.33-0.66,1.011-0.33,1.521
				c0.49,0.76,1.15,1.41,1.92,1.89C31.75,36.721,31.95,36.779,32.15,36.779L32.15,36.779z"/>
			<path fill="#55AC45" d="M48.68,57.391h-2.22c-0.61,0-1.101,0.5-1.101,1.1s0.49,1.1,1.101,1.1h2.22c0.61,0,1.1-0.49,1.1-1.1
				C49.779,57.88,49.29,57.391,48.68,57.391z"/>
			<path fill="#55AC45" d="M58.23,39.55c0.479,0,0.91-0.31,1.049-0.771c0.15-0.459-0.02-0.959-0.409-1.229
				c-0.66-0.47-1.37-0.88-2.12-1.2c-0.359-0.16-0.779-0.109-1.1,0.121c-0.32,0.229-0.49,0.619-0.45,1.01
				c0.04,0.39,0.29,0.729,0.649,0.89c0.61,0.271,1.19,0.601,1.74,0.989C57.779,39.471,58,39.55,58.23,39.55L58.23,39.55z"/>
			<path fill="#55AC45" d="M54.939,56.9c-0.629,0.209-1.289,0.35-1.949,0.42c-0.58,0.07-1.01,0.57-0.98,1.16
				c0.03,0.58,0.52,1.039,1.1,1.039c0.041,0,0.08,0,0.131-0.01c0.81-0.09,1.609-0.27,2.38-0.52c0.58-0.19,0.899-0.811,0.71-1.391
				C56.141,57.029,55.52,56.71,54.939,56.9z"/>
			<path fill="#55AC45" d="M41.939,27.59h1.101c0.61,0,1.101-0.49,1.101-1.1c0-0.61-0.5-1.1-1.101-1.1h-1.101
				c-0.609,0-1.1,0.49-1.1,1.1C40.84,27.09,41.33,27.59,41.939,27.59z"/>
		</g>
	</g>
</g>
</svg>
