<?xml version="1.0" encoding="utf-8"?>
<!-- Generator: Adobe Illustrator 16.0.0, SVG Export Plug-In . SVG Version: 6.00 Build 0)  -->
<!DOCTYPE svg PUBLIC "-//W3C//DTD SVG 1.1//EN" "http://www.w3.org/Graphics/SVG/1.1/DTD/svg11.dtd">
<svg version="1.1" id="Слой_1" xmlns="http://www.w3.org/2000/svg" xmlns:xlink="http://www.w3.org/1999/xlink" x="0px" y="0px"
	 width="170px" height="26px" viewBox="0 0 170 26" enable-background="new 0 0 170 26" xml:space="preserve">
<g>
	<path fill="#FFFFFF" d="M152.87,19.84V6.02h12.45c1.14,0,1.97,0.21,2.47,0.63c0.51,0.42,0.771,1.11,0.771,2.06v3.25
		c0,0.94-0.261,1.61-0.771,2.03c-0.511,0.41-1.33,0.619-2.47,0.619h-1.9l6.58,5.24h-4.84l-5.801-5.24h-3.18v5.24h-3.31V19.84z
		 M163.891,8.4h-7.701v3.83h7.701c0.58,0,0.989-0.09,1.199-0.26c0.21-0.17,0.33-0.46,0.33-0.86V9.52c0-0.4-0.109-0.69-0.33-0.86
		C164.87,8.49,164.471,8.4,163.891,8.4L163.891,8.4z M138.2,6.02v11.24h9.63V6.02h3.4v10.55c0,1.26-0.25,2.119-0.76,2.58
		c-0.511,0.459-1.471,0.699-2.881,0.699h-9.15c-1.41,0-2.35-0.229-2.85-0.689s-0.74-1.32-0.74-2.59V6.02H138.2L138.2,6.02z
		 M100.43,8.49v11.35h-3.369V8.49H90.38V6.02h16.74v2.47H100.43L100.43,8.49z M72.3,19.84V6.02h2.32L86.35,15.2V6.02H89.4v13.83
		h-2.33l-11.7-9.32v9.32H72.3V19.84z M57.87,14.29h6.34l-3.22-5.76L57.87,14.29L57.87,14.29z M51.33,19.84l8.21-13.83h3.24
		l8.33,13.83h-3.78l-1.74-3.04h-9.15l-1.74,3.04H51.33L51.33,19.84z M47.17,19.84h2.32l8.02-13.83h-3.5l-5.52,10.03L42.62,6.02
		h-3.81L47.17,19.84L47.17,19.84z M23.1,19.84V6.02h9.31c2.67,0,4.72,0.59,6.15,1.78c1.43,1.18,2.15,2.88,2.15,5.08
		c0,2.32-0.76,4.06-2.27,5.22c-1.52,1.16-3.81,1.74-6.88,1.74H23.1L23.1,19.84z M26.5,17.25h4.34c2.37,0,4.03-0.34,4.98-1.04
		c0.95-0.69,1.42-1.86,1.42-3.5c0-1.42-0.39-2.49-1.18-3.18c-0.78-0.7-1.99-1.05-3.62-1.05H26.5V17.25L26.5,17.25z M0,19.84
		L9.55,2.97h3.78l9.68,16.879H18.6l-2.03-3.68H5.88l-1.96,3.68H0V19.84z M7.55,13.11h7.39L11.3,6.24L7.55,13.11z"/>
	<g>
		<path fill="#FFFFFF" d="M120.82,0.35c-7.07,0-12.83,5.67-12.83,12.65c0,6.971,5.75,12.65,12.83,12.65s12.83-5.67,12.83-12.65
			C133.641,6.03,127.891,0.35,120.82,0.35z M123.891,1.44l-2.431-0.37l-0.38,0.24l-0.141,0.24l-0.859-0.1h-1.38h-0.99
			c1-0.26,2.04-0.4,3.12-0.4C121.88,1.05,122.91,1.19,123.891,1.44z M120.82,24.95c-3.25,0-6.211-1.271-8.391-3.341l-0.39-0.81
			l0.19-0.38l0.76,0.1h0.619l0.811-0.709v-0.19L113.04,19l-0.479-0.859l-0.33-0.861l-0.051-1.239v-2l0.24-0.19l0.33-0.709
			l-0.859-0.62l-0.381-1.28l-0.38-0.14l-0.14,0.24l-0.24-1.19l0.09-0.57l0.33-0.57l-0.141-0.76l-0.239-0.57l-0.09-0.33l-0.091-0.29
			l-0.51,0.36c1.42-2.63,3.811-4.68,6.69-5.69l0.96,0.43l-0.189,0.1l0.33,0.38l0.479-0.38l1.19,0.28l0.899,0.14l0.761-0.29
			l0.049-0.29h0.761l0.52-0.43l0.33,0.09l1.24-0.14l-0.13-0.18c5.16,1.38,8.96,6.02,8.96,11.53
			C132.95,19.59,127.51,24.95,120.82,24.95z"/>
		<polygon fill="#FFFFFF" points="121.46,22.38 121.6,22.609 121.88,22.42 121.93,22.279 121.6,22.04 		"/>
		<path fill="#FFFFFF" d="M126.26,21.471l-0.24,0.239L126.3,22v0.38v0.24h-0.43l-0.33-0.14h-0.33l0.19,0.289
			c0.289,0,0.14,0,0.52,0.291l0.38,0.1h0.33l0.24-0.24v-0.33v-0.47l-0.33-0.29L126.26,21.471z"/>
		<path fill="#FFFFFF" d="M130.779,12.77l-0.049-1.09l0.189-0.57l-0.24-1.28c-0.52-1.52-0.05-1.47-0.709-1.47l-0.381,0.33
			l-0.38-1.28l0.24-0.86l-0.33-0.76l0.29,0.05l-0.95-1.24l-0.899-1.05l-0.48,0.19l0.29,0.521l-0.091,0.33l-1,0.19l0.24,0.38v0.29
			l-0.14-0.14h-0.521l-0.479,0.14l-0.29-0.33c-1.08-0.25-0.439-0.6-0.9,0c-0.14,0-0.379,0-0.52,0l-0.33,0.52l-0.67,0.14l-0.24-0.14
			l-0.38,0.14l-0.43,0.57l-0.24-0.24l-0.521,0.09l-1.139,0.05L119.2,6.06l-0.05-0.24V5.21l-0.19-0.62l-1-0.19l-1.09,0.24
			l-1.091-0.14l-0.809,0.71l0.379,0.19l-0.47,0.14l-0.62,0.38l-0.189-0.14h-0.381V5.49l1.381-1.19l-0.86,0.33l-0.76,0.71
			l-0.671,0.38l-0.899,0.76L111.689,7l0.19,0.38v1l0.71-0.29v0.52v0.48L112.4,9.42l-0.48,0.52v0.33l0.57,0.19l0.1,1l0.48,0.62
			l0.43,0.09l0.141,0.38l-0.811,0.57l-0.29,0.76l0.101,2.38l0.09,0.43l0.189,0.9v0.95l0.95,0.33l0.76-0.101l1,0.19l0.479-0.19
			l0.761-0.52l-0.14-0.43l-0.09-0.051l-0.33-0.33l0.049-0.43l-0.379,0.24l-0.711-0.24l0.141-0.33l-0.24-0.38l-0.189-0.67l0.049-0.38
			l0.431,0.141l0.05,0.43l0.52,0.949l0.521,0.051l0.19,0.38l0.24,0.14l1,0.57l0.709,0.05l0.051,0.19l0.52,0.43l0.051,0.47l0.33,0.29
			l0.379-0.14v1.14l0.33,0.76l0.19,0.76l0.239,0.24l0.191,0.101l0.619-0.431v-0.24l0.29-0.329l-0.05-0.38l1.85-0.95l0.141-0.29
			l0.52-0.24l0.141-0.05l0.33-0.19l0.049,0.291l0.521,0.569l-0.05,0.29l0.1,0.38l0.521-0.38l0.569,1.05l0.19-0.569l0.521,0.33
			l0.479-0.101l0.761-0.76v-0.479l-0.291-0.141l-0.33-0.24l0.291-0.57L129,18.2l0.811-0.671l0.479-0.76l0.14-0.479l0.141-0.95
			l-0.62-0.71l-0.24-1.14l0.29-0.52l0.38-0.14l0.38,0.57l0.19,0.52l0.29-0.81L130.779,12.77z M115.33,11.65h-0.301l-0.5-0.3
			l-0.299-0.65l-0.551-0.25l-0.25-0.1V9.89l0.4-0.3l0.449-0.15l0.301-0.1l0.199,0.35l-0.299,0.2l0.199,0.3h0.2l0.25,0.35l0.2,0.45
			l0.05,0.5L115.33,11.65z M117.59,11.71h-0.35v0.3l0.22,0.44l-0.12,0.47l-0.15,0.45l0.051,0.3l-0.15,0.45h-0.35l-0.5-0.45v-0.45
			l0.3-0.45v-0.25l-0.2-0.25l0.301-0.75l0.25-0.3h0.5l0.439,0.07l0.04,0.38L117.59,11.71z M119.46,12.14v0.36l-0.181,0.21
			l-0.329,0.11l-0.021-0.12c-0.07-0.03-0.109-0.08-0.18-0.08l0.04-0.27l0.2-0.25l0.359-0.15c0.07,0.02,0.18,0.07,0.26,0.08
			L119.46,12.14z"/>
	</g>
</g>
</svg>
