<?xml version="1.0" encoding="utf-8"?>
<!-- Generator: Adobe Illustrator 16.0.0, SVG Export Plug-In . SVG Version: 6.00 Build 0)  -->
<!DOCTYPE svg PUBLIC "-//W3C//DTD SVG 1.1//EN" "http://www.w3.org/Graphics/SVG/1.1/DTD/svg11.dtd">
<svg version="1.1" id="Слой_1" xmlns="http://www.w3.org/2000/svg" xmlns:xlink="http://www.w3.org/1999/xlink" x="0px" y="0px"
	 width="20px" height="20px" viewBox="0 0 20 20" enable-background="new 0 0 20 20" xml:space="preserve">
<g>
	<path fill="#169AD0" d="M17.072,2.93C15.184,1.04,12.672,0,10,0C7.33,0,4.818,1.04,2.929,2.93C1.041,4.818,0,7.329,0,10
		s1.04,5.184,2.929,7.07C4.818,18.96,7.33,20,10,20c2.671,0,5.183-1.04,7.072-2.93C18.959,15.182,20,12.671,20,10
		S18.959,4.818,17.072,2.93z M10,18.438c-4.652,0-8.438-3.785-8.438-8.438S5.347,1.563,10,1.563c4.653,0,8.438,3.785,8.438,8.438
		S14.652,18.438,10,18.438z M14.297,9.218v1.563H5.702V9.218H14.297z"/>
</g>
</svg>
