<?xml version="1.0" encoding="utf-8"?>
<!-- Generator: Adobe Illustrator 16.0.0, SVG Export Plug-In . SVG Version: 6.00 Build 0)  -->
<!DOCTYPE svg PUBLIC "-//W3C//DTD SVG 1.1//EN" "http://www.w3.org/Graphics/SVG/1.1/DTD/svg11.dtd">
<svg version="1.1" id="Слой_1" xmlns="http://www.w3.org/2000/svg" xmlns:xlink="http://www.w3.org/1999/xlink" x="0px" y="0px"
	 width="24px" height="24px" viewBox="0 0 24 24" enable-background="new 0 0 24 24" xml:space="preserve">
<g transform="translate(1 1)">
	<g>
		<g>
			<path fill="#169AD0" d="M11-1C4.37-1-1,4.37-1,11s5.37,12,12,12s12-5.37,12-12S17.63-1,11-1z M11,21C5.48,21,1,16.52,1,11
				C1,5.48,5.48,1,11,1c5.52,0,10,4.48,10,10C21,16.52,16.52,21,11,21z"/>
			<path fill="#169AD0" d="M17,10h-5V5c0-0.55-0.45-1-1-1s-1,0.45-1,1v5H5c-0.55,0-1,0.45-1,1s0.45,1,1,1h5v5c0,0.55,0.45,1,1,1
				s1-0.45,1-1v-5h5c0.55,0,1-0.45,1-1S17.55,10,17,10z"/>
		</g>
	</g>
</g>
</svg>
