<?xml version="1.0" encoding="utf-8"?>
<!-- Generator: Adobe Illustrator 16.0.0, SVG Export Plug-In . SVG Version: 6.00 Build 0)  -->
<!DOCTYPE svg PUBLIC "-//W3C//DTD SVG 1.1//EN" "http://www.w3.org/Graphics/SVG/1.1/DTD/svg11.dtd">
<svg version="1.1" id="Слой_1" xmlns="http://www.w3.org/2000/svg" xmlns:xlink="http://www.w3.org/1999/xlink" x="0px" y="0px"
	 width="64px" height="64px" viewBox="0 0 64 64" enable-background="new 0 0 64 64" xml:space="preserve">
<g>
	<path fill="#55AC45" d="M32,13.58c-2.14,0-3.88,1.74-3.88,3.88s1.74,3.88,3.88,3.88c2.141,0,3.88-1.74,3.88-3.88
		S34.141,13.58,32,13.58z"/>
	<path fill="#55AC45" d="M32,27.15c-1.61,0-2.91,1.3-2.91,2.91v17.45c0,1.61,1.3,2.91,2.91,2.91c1.609,0,2.91-1.3,2.91-2.91V30.06
		C34.91,28.45,33.609,27.15,32,27.15z"/>
	<path fill="#55AC45" d="M32,0C14.33,0,0,14.33,0,32s14.33,32,32,32s32-14.33,32-32S49.67,0,32,0z M32,60C16.54,60,4,47.46,4,32
		S16.54,4,32,4s28,12.54,28,28S47.46,60,32,60z"/>
</g>
</svg>
