<?xml version="1.0" encoding="utf-8"?>
<!-- Generator: Adobe Illustrator 16.0.0, SVG Export Plug-In . SVG Version: 6.00 Build 0)  -->
<!DOCTYPE svg PUBLIC "-//W3C//DTD SVG 1.1//EN" "http://www.w3.org/Graphics/SVG/1.1/DTD/svg11.dtd">
<svg version="1.1" id="Слой_1" xmlns="http://www.w3.org/2000/svg" xmlns:xlink="http://www.w3.org/1999/xlink" x="0px" y="0px"
	 width="20px" height="20px" viewBox="246 246 20 20" enable-background="new 246 246 20 20" xml:space="preserve">
<g>
	<path fill="#169AD0" d="M263.072,248.929c-1.889-1.889-4.4-2.929-7.071-2.929s-5.182,1.04-7.071,2.929
		c-1.889,1.889-2.929,4.4-2.929,7.071s1.04,5.183,2.929,7.071c1.889,1.889,4.4,2.929,7.071,2.929s5.183-1.04,7.071-2.929
		S266,258.671,266,256S264.96,250.818,263.072,248.929z M256,264.438c-4.652,0-8.438-3.785-8.438-8.438s3.785-8.438,8.438-8.438
		s8.438,3.785,8.438,8.438S260.653,264.438,256,264.438z M256.781,255.218h3.516v1.563h-3.516v3.516h-1.563v-3.516h-3.516v-1.563
		h3.516v-3.516h1.563V255.218z"/>
</g>
</svg>
