<?xml version="1.0" encoding="utf-8"?>
<!-- Generator: Adobe Illustrator 16.0.0, SVG Export Plug-In . SVG Version: 6.00 Build 0)  -->
<!DOCTYPE svg PUBLIC "-//W3C//DTD SVG 1.1//EN" "http://www.w3.org/Graphics/SVG/1.1/DTD/svg11.dtd">
<svg version="1.1" id="Слой_1" xmlns="http://www.w3.org/2000/svg" xmlns:xlink="http://www.w3.org/1999/xlink" x="0px" y="0px"
	 width="64px" height="64px" viewBox="0 0 64 64" enable-background="new 0 0 64 64" xml:space="preserve">
<g>
	<path fill="#55AC45" d="M60.2,17.2L43.42,0.42C43.15,0.15,42.79,0,42.41,0H10.27c-3.8,0-6.89,3.09-6.89,6.89v50.23
		c0,3.8,3.09,6.89,6.89,6.89h43.46c3.799,0,6.879-3.09,6.879-6.89V18.2C60.62,17.83,60.471,17.47,60.2,17.2z M43.83,4.84
		l11.949,11.95H47.88c-1.08,0-2.101-0.42-2.87-1.19c-0.77-0.76-1.189-1.78-1.189-2.87V4.84H43.83z M57.779,57.109
		c0,2.23-1.819,4.051-4.049,4.051H10.27c-2.23,0-4.05-1.82-4.05-4.051V6.89c0-2.23,1.82-4.05,4.05-4.05H41v9.9
		c0,1.84,0.721,3.57,2.02,4.87c1.301,1.3,3.03,2.02,4.871,2.02h9.899v37.479H57.779z"/>
	<path fill="#55AC45" d="M17.33,42.27H16.7c-0.78,0-1.42,0.631-1.42,1.42c0,0.791,0.63,1.42,1.42,1.42h0.63
		c0.78,0,1.42-0.629,1.42-1.42C18.75,42.9,18.11,42.27,17.33,42.27z"/>
	<path fill="#55AC45" d="M47.311,42.27h-25.4c-0.78,0-1.42,0.631-1.42,1.42c0,0.791,0.63,1.42,1.42,1.42h25.4
		c0.779,0,1.42-0.629,1.42-1.42C48.73,42.9,48.09,42.27,47.311,42.27z"/>
	<path fill="#55AC45" d="M17.33,35.8H16.7c-0.78,0-1.42,0.63-1.42,1.421c0,0.779,0.63,1.42,1.42,1.42h0.63
		c0.78,0,1.42-0.641,1.42-1.42C18.74,36.43,18.11,35.8,17.33,35.8z"/>
	<path fill="#55AC45" d="M47.311,35.8h-25.4c-0.78,0-1.42,0.63-1.42,1.421c0,0.779,0.63,1.42,1.42,1.42h25.4
		c0.779,0,1.42-0.641,1.42-1.42C48.721,36.43,48.09,35.8,47.311,35.8z"/>
	<path fill="#55AC45" d="M17.33,29.32H16.7c-0.78,0-1.42,0.63-1.42,1.42c0,0.78,0.63,1.42,1.42,1.42h0.63
		c0.78,0,1.42-0.63,1.42-1.42C18.74,29.96,18.11,29.32,17.33,29.32z"/>
	<path fill="#55AC45" d="M21.91,29.32c-0.78,0-1.42,0.63-1.42,1.42c0,0.78,0.63,1.42,1.42,1.42h25.4c0.779,0,1.42-0.63,1.42-1.42
		c0-0.78-0.631-1.42-1.42-1.42H21.91z"/>
</g>
</svg>
