<?xml version="1.0" encoding="utf-8"?>
<!-- Generator: Adobe Illustrator 16.0.0, SVG Export Plug-In . SVG Version: 6.00 Build 0)  -->
<!DOCTYPE svg PUBLIC "-//W3C//DTD SVG 1.1//EN" "http://www.w3.org/Graphics/SVG/1.1/DTD/svg11.dtd">
<svg version="1.1" id="Слой_1" xmlns="http://www.w3.org/2000/svg" xmlns:xlink="http://www.w3.org/1999/xlink" x="0px" y="0px"
	 width="64px" height="64px" viewBox="0 0 64 64" enable-background="new 0 0 64 64" xml:space="preserve">
<g>
	<g>
		<path fill="#55AC45" d="M51.45,59.359c-0.3,0-0.601-0.1-0.841-0.311l-12.969-11H8.9c-4.91,0-8.9-4.01-8.9-8.949V13.58
			c0-4.93,3.99-8.95,8.9-8.95h46.2c4.9,0,8.9,4.01,8.9,8.95v25.529c0,4.931-3.99,8.951-8.9,8.951H52.74v10
			c0,0.51-0.29,0.969-0.75,1.18C51.82,59.33,51.63,59.359,51.45,59.359z M8.9,7.25c-3.47,0-6.3,2.84-6.3,6.33v25.529
			c0,3.49,2.83,6.33,6.3,6.33h29.209c0.311,0,0.601,0.109,0.841,0.311l11.2,9.49v-8.5c0-0.721,0.58-1.311,1.3-1.311h3.659
			c3.471,0,6.301-2.841,6.301-6.33V13.58c0-3.49-2.83-6.33-6.301-6.33H8.9z"/>
	</g>
	<g>
		<g>
			<path fill="#55AC45" d="M52.92,19.26H11.08c-0.72,0-1.3-0.58-1.3-1.31s0.58-1.31,1.3-1.31h41.84c0.721,0,1.301,0.58,1.301,1.31
				S53.641,19.26,52.92,19.26z"/>
		</g>
		<g>
			<path fill="#55AC45" d="M52.92,27.63H11.08c-0.72,0-1.3-0.58-1.3-1.31s0.58-1.31,1.3-1.31h41.84c0.721,0,1.301,0.58,1.301,1.31
				S53.641,27.63,52.92,27.63z"/>
		</g>
		<g>
			<path fill="#55AC45" d="M52.92,35.99H11.08c-0.72,0-1.3-0.59-1.3-1.311s0.58-1.311,1.3-1.311h41.84
				c0.721,0,1.301,0.58,1.301,1.311C54.221,35.4,53.641,35.99,52.92,35.99z"/>
		</g>
	</g>
</g>
</svg>
