<?xml version="1.0" encoding="utf-8"?>
<!-- Generator: Adobe Illustrator 16.0.0, SVG Export Plug-In . SVG Version: 6.00 Build 0)  -->
<!DOCTYPE svg PUBLIC "-//W3C//DTD SVG 1.1//EN" "http://www.w3.org/Graphics/SVG/1.1/DTD/svg11.dtd">
<svg version="1.1" id="Слой_1" xmlns="http://www.w3.org/2000/svg" xmlns:xlink="http://www.w3.org/1999/xlink" x="0px" y="0px"
	 width="64px" height="64px" viewBox="0 0 64 64" enable-background="new 0 0 64 64" xml:space="preserve">
<g>
	<path fill="#55AC45" d="M43.996,30.8L24.742,19.522c-0.428-0.25-0.96-0.253-1.395-0.005c-0.433,0.248-0.697,0.707-0.697,1.205
		v22.555c0,0.498,0.268,0.959,0.697,1.207c0.214,0.119,0.454,0.183,0.692,0.183c0.244,0,0.486-0.063,0.701-0.188l19.255-11.275
		c0.424-0.249,0.688-0.705,0.688-1.196C44.684,31.507,44.422,31.049,43.996,30.8z M25.775,40.02V23.982l14.403,8.017L25.775,40.02z"
		/>
	<path fill="#55AC45" d="M56,64H8c-3.891,0-8-4.107-8-8V8c0-3.89,4.109-8,8-8h48c3.891,0,8,4.11,8,8v48C64,59.891,59.891,64,56,64z
		 M8,3.999c-1.65,0-4,2.352-4,4V56c0,1.641,2.35,4,4,4h48c1.641,0,4-2.359,4-4V7.999c0-1.648-2.359-4-4-4H8z"/>
</g>
</svg>
